<svg width="24" height="24" viewBox="0 0 24 24" fill="none" xmlns="http://www.w3.org/2000/svg">
<path d="M16.8573 11.5647C15.6001 10.2237 13.7562 9.55317 11.4932 9.63698L10.2359 5.86529C10.0683 5.27859 9.39778 4.94333 8.81108 5.11096L5.12321 6.28437L4.5365 4.44044C4.45268 4.10517 4.03361 3.93754 3.61453 4.02136C3.27927 4.18899 3.11164 4.52425 3.19546 4.94333L3.78216 6.78726L3.53072 6.87108C2.18967 7.29015 1.18389 8.21212 0.513368 9.38554C-0.0733384 10.6428 -0.157154 12.1514 0.261923 13.4925C0.680999 14.7497 1.60297 15.8393 2.77638 16.5098C3.53072 16.8451 4.36887 17.0965 5.12321 17.0965C5.70991 17.0965 6.2128 17.0127 6.79951 16.8451L11.9961 15.085L12.1637 15.0012C12.6666 14.6659 12.918 14.163 12.7504 13.6601L12.4989 12.822C12.8342 13.0734 13.2533 13.4087 13.7562 13.9954C14.5943 15.0012 14.8458 17.0965 14.5105 19.6948V19.7786C14.5105 20.3653 14.9296 20.8682 15.5163 20.8682H17.8631C18.366 20.8682 18.7851 20.4491 18.8689 19.9463C19.0365 18.7728 19.4556 14.2468 16.8573 11.5647ZM6.38043 15.4202C5.45847 15.6717 4.36887 15.6717 3.4469 15.1688C2.52493 14.7497 1.93823 13.9954 1.60297 12.9896C1.26771 11.9838 1.35152 10.8942 1.85441 10.0561C2.27349 9.13409 3.02783 8.54738 4.03361 8.21212L4.28505 8.12831L5.12321 10.6428C5.20702 10.978 5.45847 11.1457 5.79373 11.1457C5.87754 11.1457 5.96136 11.1457 6.04517 11.1457C6.38043 11.0618 6.63188 10.6428 6.46425 10.2237L5.6261 7.70923L8.97871 6.61963L11.4093 13.8277L6.38043 15.4202ZM17.5279 19.1919H16.0192C16.1868 17.4318 16.2706 14.5821 14.9296 12.9058C14.0076 11.8162 13.0857 11.2295 12.4151 10.978C13.84 11.1457 15.0134 11.6485 15.8516 12.4867C17.7793 14.5821 17.6117 18.1023 17.5279 19.1919Z" fill="#FDFDFD"/>
<circle cx="18.1406" cy="5.40674" r="5" fill="#FB8500"/>
<path fill-rule="evenodd" clip-rule="evenodd" d="M18.8906 2.40674H17.3906V4.65674H15.1406V6.15674H17.3906V8.40674H18.8906V6.15674H21.1406V4.65674H18.8906V2.40674Z" fill="#FDFDFD"/>
</svg>
