<svg width="301" height="300" viewBox="0 0 301 300"  fill='#000000' xmlns="http://www.w3.org/2000/svg">
<path d="M151.078 24.3868C145.984 24.3868 141.489 26.9767 138.692 30.8616C144.985 30.4632 149.28 30.3636 150.379 30.3636C151.478 30.3636 156.373 30.4632 163.565 30.9612C160.868 26.9767 156.273 24.3868 151.078 24.3868ZM258.663 53.374C244.079 37.5357 218.906 29.2678 196.53 24.9845C185.641 22.8926 175.452 21.7969 167.361 21.0996C170.558 23.9884 173.055 27.674 174.453 31.8577C198.528 34.4477 234.289 41.4205 251.371 60.1477C258.763 68.1167 261.86 77.281 260.861 88.2384C260.561 91.924 260.262 96.0081 259.862 100.192C257.365 131.271 253.968 173.805 238.885 208.471C221.203 248.913 192.334 268.338 150.379 268.138C149.979 268.138 149.68 268.138 149.38 268.138C108.124 268.138 79.6546 248.714 62.2732 208.769C47.0894 174.204 43.5932 131.669 41.0958 100.59C40.6963 96.2073 40.3966 92.1232 40.0969 88.2384C39.098 77.281 42.1947 68.1167 49.4869 60.1477C66.9682 41.1217 103.929 34.2484 128.003 31.7581C129.401 27.5744 131.899 23.8888 135.195 21C110.821 22.793 64.1712 29.3674 42.1947 53.374C33.0045 63.4349 29.0088 75.3884 30.2075 89.1349C30.5072 92.9201 30.9067 97.1039 31.2064 101.387C36.2011 163.147 45.591 278.1 149.38 278C149.78 278 150.079 278 150.479 278H151.478C255.567 278 264.857 162.848 269.851 100.889C270.151 96.7054 270.551 92.7209 270.85 89.0352C271.849 75.488 267.854 63.4349 258.663 53.374Z" fill="black" fill-opacity="0.87"/>
<path d="M208.817 48.2438C210.715 51.0348 211.914 54.3241 211.914 57.9125C211.914 58.5106 211.914 59.1086 211.814 59.607C225.999 64.3915 233.891 70.0732 233.891 74.0602C233.891 82.1341 201.525 97.4844 150.879 97.4844C100.233 97.4844 67.9678 82.1341 67.9678 74.0602C67.9678 69.9735 76.4588 63.9928 91.5427 59.1086C91.5427 58.7099 91.5427 58.3112 91.5427 57.9125C91.5427 54.1248 92.8413 50.5364 95.0389 47.6458C73.3621 53.3274 57.9785 62.398 57.9785 74.0602C57.9785 85.8222 73.7617 93.6967 87.0475 98.1822C104.729 104.163 127.404 107.452 150.879 107.452C174.354 107.452 197.03 104.163 214.711 98.1822C227.997 93.6967 243.78 85.9218 243.78 74.0602C243.78 62.7967 229.295 53.9254 208.817 48.2438Z" fill="black" fill-opacity="0.87"/>
<path d="M166.662 39.2729C166.662 40.0703 166.562 40.768 166.462 41.4658C165.863 45.3532 163.765 48.8419 160.768 51.1345C158.171 53.128 154.974 54.3242 151.478 54.3242C147.982 54.3242 144.685 53.128 142.188 51.1345C139.191 48.8419 137.093 45.3532 136.594 41.4658C136.494 40.768 136.494 40.0703 136.494 39.3726C136.494 36.1829 137.493 33.1926 139.191 30.8003C141.888 26.9129 146.483 24.3213 151.578 24.3213C156.772 24.3213 161.368 26.9129 164.065 30.9C165.763 33.1926 166.662 36.0832 166.662 39.2729Z" fill="black" fill-opacity="0.87"/>
<path d="M131.3 57.9125C131.3 66.8835 124.008 74.2596 114.918 74.2596C105.827 74.2596 98.5352 66.9831 98.5352 57.9125C98.5352 57.5138 98.5352 57.2148 98.5352 56.8161C99.1345 48.3435 106.227 41.5654 114.818 41.5654C121.211 41.5654 126.705 45.2535 129.402 50.5364C130.701 52.7293 131.3 55.2212 131.3 57.9125Z" fill="black" fill-opacity="0.87"/>
<path d="M204.122 57.9125C204.122 66.8835 196.83 74.2596 187.74 74.2596C178.65 74.2596 171.357 66.9831 171.357 57.9125C171.357 57.5138 171.357 57.2148 171.357 56.8161C171.957 48.3435 179.049 41.5654 187.64 41.5654C194.033 41.5654 199.527 45.2535 202.224 50.5364C203.523 52.7293 204.122 55.2212 204.122 57.9125Z" fill="black" fill-opacity="0.87"/>
<path d="M267.055 15.2506H256.167V4.3858C256.167 1.99355 254.169 0 251.772 0C249.374 0 247.376 1.99355 247.376 4.3858V15.2506H236.488C234.091 15.2506 232.093 17.2442 232.093 19.6364C232.093 22.0287 234.091 24.0222 236.488 24.0222H247.376V34.8871C247.376 37.2793 249.374 39.2729 251.772 39.2729C254.169 39.2729 256.167 37.2793 256.167 34.8871V24.1219H267.055C269.453 24.1219 271.451 22.1284 271.451 19.7361C271.451 17.2442 269.553 15.2506 267.055 15.2506Z" fill="black" fill-opacity="0.87"/>
</svg>
