<svg width="25" height="19" viewBox="0 0 25 19" fill="none" xmlns="http://www.w3.org/2000/svg">
<path d="M5.86476 5.2027H6.62152V5.95946C6.62152 6.33784 6.81071 6.62162 6.99989 6.90541L8.89179 8.7027C9.17557 8.98649 9.45935 9.08108 9.83773 9.08108H11.1621C11.5404 9.08108 11.8242 8.98649 12.108 8.7027L14.0945 6.90541C14.3783 6.62162 14.5675 6.33784 14.5675 5.95946V5.2027H15.2296C15.7972 5.2027 16.3648 4.72973 16.3648 4.06757V1.13514C16.3648 0.567568 15.8918 0 15.2296 0H5.86476C5.29719 0.0945946 4.82422 0.567568 4.82422 1.13514V4.06757C4.82422 4.72973 5.29719 5.2027 5.86476 5.2027ZM13.0539 5.95946L11.1621 7.75676H9.83773L8.04043 6.05405V5.2027H13.0539V5.95946ZM6.24314 1.51351H14.8512V3.78378H6.24314V1.51351Z" fill="#FDFDFD"/>
<path d="M11.2567 11.1617V10.5942C11.2567 10.2158 10.9729 9.8374 10.4999 9.8374C10.1215 9.8374 9.74316 10.1212 9.74316 10.5942V11.1617C9.74316 13.2428 11.4459 14.9455 13.5269 14.9455H20.1486C20.5269 14.9455 20.9053 14.6617 20.9053 14.1888C20.9053 13.8104 20.6215 13.432 20.1486 13.432H13.5269C12.2972 13.6212 11.2567 12.4861 11.2567 11.1617Z" fill="#FDFDFD"/>
<path d="M20.2432 16.46H0.756757C0.378378 16.46 0 16.7437 0 17.2167C0 17.5951 0.283784 17.9735 0.756757 17.9735H20.2432C20.6216 17.9735 21 17.6897 21 17.2167C21 16.7437 20.6216 16.46 20.2432 16.46Z" fill="#FDFDFD"/>
<circle cx="20" cy="14" r="5" fill="#FB8500"/>
<path fill-rule="evenodd" clip-rule="evenodd" d="M20.75 11H19.25V13.25H17V14.75H19.25V17H20.75V14.75H23V13.25H20.75V11Z" fill="#FDFDFD"/>
</svg>
