<svg xmlns="http://www.w3.org/2000/svg" width="50" height="50" viewBox="0 0 50 50" fill="none">
  <path d="M42.0834 8.95834C38.3334 5.83334 32.2917 4.375 27.9167 3.95834C25.4167 3.54167 22.7084 3.75 20.2084 3.95834C16.0417 4.58334 10.2084 5.83334 6.45838 8.95834C4.58338 10.625 3.54172 13.125 3.95838 15.625L5.83338 29.7917C6.25005 33.125 7.29172 36.25 8.95838 38.75C14.5834 47.5 22.7084 47.5 24.1667 47.2917C24.3751 47.2917 24.5834 47.2917 25.0001 47.2917C27.5001 47.2917 33.3334 46.4583 38.3334 40C40.625 37.0833 42.0834 33.3333 42.7084 29.1667L44.5834 15.625C45 13.125 43.9584 10.625 42.0834 8.95834ZM9.16672 12.0833C12.0834 9.58334 17.7084 8.54167 20.6251 8.125C22.7084 7.91667 25.0001 7.91667 27.2917 8.125C32.7084 8.75 37.0834 10.2083 39.375 12.0833C40.2084 12.7083 40.625 13.75 40.4167 14.7917C38.9584 15.2083 36.8751 16.25 34.5834 17.5C23.9584 14.375 16.2501 16.6667 13.5417 17.9167C11.4584 16.6667 9.37505 15.8333 8.12505 15.4167V15.2083C7.91672 13.9583 8.33338 12.9167 9.16672 12.0833ZM30.6251 20.8333C29.3751 22.0833 28.5417 23.3333 27.9167 24.7917C25.625 31.4583 24.3751 32.5 23.9584 32.5C23.5417 32.5 22.5001 31.4583 20.0001 24.7917C19.5834 23.3333 18.75 22.0833 17.5 20.8333C20.4167 20.2083 24.7917 19.7917 30.6251 20.8333ZM35.2084 37.5C30.4167 43.75 24.7917 43.3333 24.5834 43.125H24.3751H24.1667C23.9584 43.125 17.2917 43.75 12.7084 36.4583C11.4584 34.375 10.6251 31.875 10.2084 29.1667L8.75005 20C11.6667 21.25 15.2084 23.5417 16.2501 26.25C18.1251 31.875 20.2084 36.875 23.9584 36.875H24.1667C27.9167 36.875 30.0001 31.875 31.8751 26.25C32.7084 23.5417 36.6667 21.25 39.7917 19.7917L38.5417 28.75C38.125 32.0833 36.875 35.2083 35.2084 37.5Z" fill="#393939"/>
</svg>
