<?xml version="1.0" encoding="UTF-8" standalone="no"?>
<svg
   width="216"
   height="214"
   viewBox="0 0 216 214"
   fill="none"
   version="1.1"
   id="svg6"
   sodipodi:docname="crucibles.svg"
   inkscape:version="1.1.2 (b8e25be833, 2022-02-05)"
   xmlns:inkscape="http://www.inkscape.org/namespaces/inkscape"
   xmlns:sodipodi="http://sodipodi.sourceforge.net/DTD/sodipodi-0.dtd"
   xmlns="http://www.w3.org/2000/svg"
   xmlns:svg="http://www.w3.org/2000/svg">
  <defs
     id="defs10" />
  <sodipodi:namedview
     id="namedview8"
     pagecolor="#ffffff"
     bordercolor="#666666"
     borderopacity="1.0"
     inkscape:pageshadow="2"
     inkscape:pageopacity="0.0"
     inkscape:pagecheckerboard="0"
     showgrid="false"
     inkscape:zoom="3.8831776"
     inkscape:cx="71.462094"
     inkscape:cy="87.042118"
     inkscape:window-width="1920"
     inkscape:window-height="1017"
     inkscape:window-x="-8"
     inkscape:window-y="-8"
     inkscape:window-maximized="1"
     inkscape:current-layer="svg6" />
  <path
     d="m 107.93204,67.708876 c -13.352625,0 -23.943195,2.44854 -31.444705,6.338513 -7.50144,3.890073 -12.13502,9.42044 -12.19845,15.450593 -10e-4,0.09275 0.0146,0.178138 0.0238,0.27008 -0.007,0.157362 -0.01,0.316308 0.0101,0.470355 0,0 0.0761,0.525904 0.0761,0.552388 0.11554,0.924135 2.15414,17.151625 4.21166,26.522635 0.95403,4.34551 2.24965,11.19106 7.75445,17.20117 3.11048,3.39625 7.55189,6.41199 13.76358,8.60703 l -0.005,0.008 c 0,0 4.68601,1.8731 11.738485,2.73027 0.52496,0.0748 1.0053,0.17423 1.54614,0.23943 -0.0974,-0.0247 -0.19211,-0.0663 -0.28938,-0.0943 1.42347,0.14071 2.90307,0.25011 4.48202,0.27811 1.65897,0.0332 3.19017,-0.0413 4.65727,-0.14956 -0.0102,0.002 -0.0192,0.006 -0.0286,0.008 0.0367,-0.004 0.0645,-0.008 0.0996,-0.0166 7.52781,-0.56837 12.35489,-2.5936 12.35489,-2.5936 l -0.0192,-0.0332 c 6.83425,-2.22009 11.67889,-5.38059 14.98253,-8.98791 5.50513,-6.01012 6.80528,-12.85567 7.75926,-17.20118 2.11657,-9.63917 4.24947,-26.890654 4.24947,-26.890727 0.0367,-0.216152 0.0461,-0.438088 0.0367,-0.663338 0.002,-0.07456 0.0184,-0.149148 0.0184,-0.226982 0,-6.150938 -4.68013,-11.726649 -12.23161,-15.583165 -7.55148,-3.856518 -18.2025,-6.235904 -31.54444,-6.235904 z m -0.0192,6.214414 h 0.005 c 0.0265,-2.58e-4 0.0641,-2.58e-4 0.0898,0 0.0102,-7.4e-5 0.0249,-7.4e-5 0.0331,0 6.12478,0.07456 12.47082,0.390053 18.75276,1.82753 0.0343,0.0083 0.0682,0.0082 0.10451,0.01654 2.53294,0.65597 5.83985,1.438729 8.89285,3.008778 3.0526,1.570049 6.03417,4.293608 6.63505,8.200404 0.0184,0.117616 0.0273,0.23597 0.0367,0.355244 0.0919,3.620877 -2.37292,6.26336 -4.48174,7.909364 -2.10922,1.646004 -4.0025,2.859372 -4.74748,3.8518 -0.10287,0.131688 -0.21758,0.256745 -0.34167,0.372704 -5.73046,5.541706 -6.07662,14.264036 -9.78888,23.000366 -2.44355,8.89067 -14.45391,13.42993 -23.08796,8.39743 -3.892035,-2.10589 -6.019145,-5.43437 -7.294475,-8.60703 -1.28757,-3.20323 -1.93381,-6.4002 -2.83138,-8.86378 -0.0523,-0.14255 -0.1005,-0.28842 -0.12794,-0.4365 -1.3675,-7.02825 -5.26558,-13.666046 -11.55814,-17.599106 l 0.10438,0.06623 c -6.0838,-3.481012 -6.21369,-11.748862 -0.21341,-15.364913 9.18346,-5.550222 20.223456,-5.923552 29.822685,-6.133184 z"
     fill="white"
     id="path2"
     style="fill:#000000;stroke-width:0.387772"
     inkscape:export-filename="C:\Users\MM3D\Desktop\Web_Icons\crucible.png"
     inkscape:export-xdpi="122.32"
     inkscape:export-ydpi="122.32" />
  <path
     d="m 107.9994,77.025004 c -8.705289,0.101041 -17.740645,0.744597 -25.662985,4.254304 -3.22519,1.412945 -6.33665,4.576248 -5.07002,8.020461 1.24064,3.366785 5.36332,4.615552 7.60741,7.305922 4.07688,3.893129 6.67918,8.884589 7.76865,14.128149 1.38897,4.50427 2.5469,9.12716 4.695436,13.39163 2.10338,3.42314 6.307409,5.70695 10.657019,5.69259 0,0.002 0,0.002 0,0.004 4.35315,0.0166 8.5618,-2.27129 10.66653,-5.69665 2.14882,-4.26447 3.3065,-8.88772 4.69523,-13.39199 1.08952,-5.24356 3.69186,-10.23491 7.76865,-14.128001 2.24475,-2.690223 6.36645,-3.939322 7.60781,-7.305922 1.26627,-3.444066 -1.84511,-6.607664 -5.07038,-8.020609 -7.92213,-3.509891 -16.95745,-4.153263 -25.66335,-4.254304 z"
     fill="white"
     id="path4"
     style="fill:#000000;stroke-width:0.387772"
     inkscape:export-filename="C:\Users\MM3D\Desktop\Web_Icons\crucible.png"
     inkscape:export-xdpi="122.32"
     inkscape:export-ydpi="122.32" />
  <rect
     style="font-variation-settings:normal;vector-effect:none;fill:#000000;fill-opacity:1;fill-rule:evenodd;stroke-width:0.0488979;stroke-linecap:butt;stroke-linejoin:miter;stroke-miterlimit:4;stroke-dasharray:none;stroke-dashoffset:0;stroke-opacity:1;-inkscape-stroke:none;stop-color:#000000"
     id="rect4714"
     width="0.95570809"
     height="141.74442"
     x="176.19061"
     y="36.078201"
     ry="12.83917"
     rx="0"
     inkscape:export-filename="C:\Users\MM3D\Desktop\Web_Icons\crucible.png"
     inkscape:export-xdpi="122.32"
     inkscape:export-ydpi="122.32" />
  <rect
     style="font-variation-settings:normal;vector-effect:none;fill:#000000;fill-opacity:1;fill-rule:evenodd;stroke-width:0.0489252;stroke-linecap:butt;stroke-linejoin:miter;stroke-miterlimit:4;stroke-dasharray:none;stroke-dashoffset:0;stroke-opacity:1;-inkscape-stroke:none;stop-color:#000000"
     id="rect4714-8"
     width="0.95570809"
     height="141.89935"
     x="38.853378"
     y="36.048325"
     ry="12.8532"
     rx="0"
     inkscape:export-filename="C:\Users\MM3D\Desktop\Web_Icons\crucible.png"
     inkscape:export-xdpi="122.32"
     inkscape:export-ydpi="122.32" />
  <rect
     style="font-variation-settings:normal;vector-effect:none;fill:#000000;fill-opacity:1;fill-rule:evenodd;stroke-width:0.0516079;stroke-linecap:butt;stroke-linejoin:miter;stroke-miterlimit:4;stroke-dasharray:none;stroke-dashoffset:0;stroke-opacity:1;-inkscape-stroke:none;stop-color:#000000"
     id="rect4714-8-4"
     width="1.0911491"
     height="138.29324"
     x="-177.95168"
     y="38.853378"
     ry="12.526563"
     rx="0"
     transform="rotate(-90)"
     inkscape:export-filename="C:\Users\MM3D\Desktop\Web_Icons\crucible.png"
     inkscape:export-xdpi="122.32"
     inkscape:export-ydpi="122.32" />
  <rect
     style="font-variation-settings:normal;vector-effect:none;fill:#000000;fill-opacity:1;fill-rule:evenodd;stroke-width:0.0515812;stroke-linecap:butt;stroke-linejoin:miter;stroke-miterlimit:4;stroke-dasharray:none;stroke-dashoffset:0;stroke-opacity:1;-inkscape-stroke:none;stop-color:#000000"
     id="rect4714-6"
     height="138.14861"
     x="-37.16214"
     y="38.925697"
     ry="12.513463"
     rx="0"
     inkscape:export-filename="C:\Users\MM3D\Desktop\Web_Icons\crucible.png"
     inkscape:export-xdpi="122.32"
     inkscape:export-ydpi="122.32"
     transform="rotate(-90)"
     width="1.091" />
</svg>
