<svg width="301" height="300" viewBox="0 0 301 300" fill="none" xmlns="http://www.w3.org/2000/svg">
<path d="M151.951 90.2402C156.363 90.2402 159.94 86.6688 159.94 82.2632C159.94 77.8576 156.363 74.2861 151.951 74.2861C147.538 74.2861 143.961 77.8576 143.961 82.2632C143.961 86.6688 147.538 90.2402 151.951 90.2402Z" fill="black" fill-opacity="0.87"/>
<path d="M123.588 70.6966C126.456 70.6966 128.781 68.3751 128.781 65.5115C128.781 62.6479 126.456 60.3264 123.588 60.3264C120.72 60.3264 118.395 62.6479 118.395 65.5115C118.395 68.3751 120.72 70.6966 123.588 70.6966Z" fill="black" fill-opacity="0.87"/>
<path d="M125.785 82.662C126.999 82.662 127.982 81.6799 127.982 80.4683C127.982 79.2568 126.999 78.2747 125.785 78.2747C124.572 78.2747 123.588 79.2568 123.588 80.4683C123.588 81.6799 124.572 82.662 125.785 82.662Z" fill="black" fill-opacity="0.87"/>
<path d="M176.019 82.662C177.233 82.662 178.217 81.6799 178.217 80.4683C178.217 79.2568 177.233 78.2747 176.019 78.2747C174.806 78.2747 173.822 79.2568 173.822 80.4683C173.822 81.6799 174.806 82.662 176.019 82.662Z" fill="black" fill-opacity="0.87"/>
<path d="M181.213 70.6966C184.081 70.6966 186.406 68.3751 186.406 65.5115C186.406 62.6479 184.081 60.3264 181.213 60.3264C178.345 60.3264 176.02 62.6479 176.02 65.5115C176.02 68.3751 178.345 70.6966 181.213 70.6966Z" fill="black" fill-opacity="0.87"/>
<path d="M205.082 82.5623C207.95 82.5623 210.275 80.2409 210.275 77.3772C210.275 74.5136 207.95 72.1921 205.082 72.1921C202.214 72.1921 199.889 74.5136 199.889 77.3772C199.889 80.2409 202.214 82.5623 205.082 82.5623Z" fill="black" fill-opacity="0.87"/>
<path d="M100.816 82.5623C103.684 82.5623 106.01 80.2409 106.01 77.3772C106.01 74.5136 103.684 72.1921 100.816 72.1921C97.9482 72.1921 95.623 74.5136 95.623 77.3772C95.623 80.2409 97.9482 82.5623 100.816 82.5623Z" fill="black" fill-opacity="0.87"/>
<path d="M259.212 53.0473C244.631 37.193 219.463 28.9168 197.092 24.6291C188.703 23.0337 180.614 21.9369 173.623 21.2389V31.3099C197.691 33.8027 234.444 40.6829 251.821 59.7281C259.112 67.7051 262.208 76.8787 261.309 87.8472C261.009 91.5366 260.61 95.6248 260.31 99.8127C257.814 130.923 254.418 173.501 239.338 208.201C221.86 248.385 193.297 267.929 151.951 267.929H150.952H149.853C108.707 267.929 80.1435 248.485 62.766 208.5C47.6855 173.9 44.19 131.322 41.6932 100.212C41.2937 95.8242 40.9941 91.736 40.6945 87.8472C39.6958 76.8787 42.7918 67.7051 50.0824 59.7281C67.9592 40.1843 106.21 33.4039 130.179 31.1105V21.1392C104.812 23.5323 63.1654 30.7116 42.6919 53.147C33.5038 63.2181 29.509 75.1836 30.7074 88.944C31.007 92.7331 31.4065 96.9211 31.7061 101.209C36.6997 163.031 46.0875 278.1 149.853 278H151.951C256.016 278 265.304 162.732 270.297 100.71C270.597 96.5222 270.997 92.5337 271.296 88.8443C272.495 75.1836 268.4 63.1183 259.212 53.0473Z" fill="black" fill-opacity="0.87"/>
<path d="M173.623 41.7796V50.0558C173.623 50.6541 173.623 51.2524 173.523 51.7509C210.975 55.3406 233.845 67.1068 233.845 73.7875C233.845 81.8643 201.487 97.2201 150.853 97.2201C100.218 97.2201 67.9597 81.8643 67.9597 73.7875C67.9597 67.007 91.6291 54.8421 130.179 51.5515C130.179 51.053 130.079 50.5544 130.079 50.0558V41.6799C92.4281 44.8707 57.9727 56.6369 57.9727 73.8872C57.9727 85.6534 73.7522 93.5307 87.0351 98.0178C104.712 104.001 127.383 107.291 150.853 107.291C174.322 107.291 196.993 104.001 214.67 98.0178C227.953 93.5307 243.832 85.7531 243.832 73.8872C243.932 56.8363 210.575 45.2696 173.623 41.7796Z" fill="black" fill-opacity="0.87"/>
<path d="M137.17 0V50.0559C137.17 50.3551 137.17 50.7539 137.17 51.0531C137.669 58.731 144.061 64.7138 151.851 64.7138C159.641 64.7138 165.933 58.731 166.532 51.1528C166.532 50.7539 166.532 50.3551 166.532 49.9562V0H137.17ZM143.662 57.6341C143.062 57.6341 142.463 57.1356 142.463 56.5373C142.463 55.939 142.962 55.3407 143.662 55.3407C144.261 55.3407 144.76 55.8393 144.76 56.5373C144.76 57.0359 144.261 57.6341 143.662 57.6341ZM151.951 57.6341C151.352 57.6341 150.752 57.1356 150.752 56.5373C150.752 55.939 151.252 55.3407 151.951 55.3407C152.55 55.3407 153.049 55.8393 153.049 56.5373C153.049 57.0359 152.55 57.6341 151.951 57.6341ZM159.94 57.6341C159.341 57.6341 158.842 57.1356 158.842 56.5373C158.842 55.939 159.341 55.3407 159.94 55.3407C160.54 55.3407 161.139 55.8393 161.139 56.5373C161.139 57.0359 160.54 57.6341 159.94 57.6341Z" fill="black" fill-opacity="0.87"/>
</svg>
