<svg width="20" height="21" viewBox="0 0 11 21" fill="none" xmlns="http://www.w3.org/2000/svg">
<path d="M6.23956 8.96715C3.68848 9.39977 2.41252 11.2139 2.41252 14.4088C2.41252 16.0572 2.72827 17.3371 3.35961 18.2486C3.9905 19.1604 4.73257 19.6159 5.5861 19.6159C6.46584 19.6159 7.19055 19.1786 7.75962 18.304C8.32795 17.4288 8.61258 16.2366 8.61258 14.7266C8.61273 12.5534 7.82217 10.6334 6.2396 8.96711M5.65272 8.3314C5.20889 7.81568 4.59056 7.1989 3.79988 6.48072C2.92822 5.68878 2.34192 5.06719 2.03921 4.61612C1.73739 4.16473 1.58611 3.66294 1.58611 3.11052C1.58611 2.30028 1.95078 1.66488 2.67938 1.20452C3.40872 0.744286 4.35968 0.509444 5.53316 0.5C6.70634 0.5 7.72882 0.707096 8.59975 1.12159C9.4711 1.53579 9.91045 2.10699 9.91987 2.83397C9.91987 3.18398 9.81288 3.47401 9.59935 3.70437C9.38656 3.93456 9.1377 4.04942 8.85311 4.04942C8.44398 4.04942 7.9641 3.73181 7.41296 3.09656C6.85286 2.45188 6.38179 2.00081 5.99932 1.74287C5.61729 1.48509 5.16375 1.35178 4.63939 1.34247C3.98172 1.34247 3.44346 1.49469 3.02598 1.79819C2.6085 2.10216 2.39436 2.48859 2.38612 2.95859C2.38612 3.40053 2.5597 3.81486 2.90627 4.20176C3.25254 4.58867 4.14603 5.29288 5.58617 6.31518C7.12374 7.41078 8.20831 8.26721 8.83966 8.88399C9.47086 9.5011 9.99039 10.2515 10.3995 11.1355C10.8083 12.0195 11.0084 12.9542 10.9997 13.9393C10.9997 15.6705 10.4129 17.1942 9.23937 18.5107C8.06619 19.828 6.68844 20.4907 5.10633 20.5C3.67503 20.5 2.46638 19.9705 1.4798 18.9118C0.493214 17.8526 0 16.4391 0 14.6713C0 12.9677 0.542286 11.5454 1.62659 10.4034C2.71044 9.26177 4.05301 8.57074 5.65313 8.33141" fill="#393939"/>
</svg>
