<svg width="50" height="50" viewBox="0 0 50 50" fill="none" xmlns="http://www.w3.org/2000/svg">
<g id="Foundry Outline">
<path id="Vector" d="M43.3334 23.125C40.2084 19.7917 35.6251 18.125 30.0001 18.3333L26.8751 8.95832C26.4584 7.49999 24.7917 6.66666 23.3334 7.08332L14.1667 9.99999L12.7084 5.41666C12.5001 4.58332 11.4584 4.16666 10.4167 4.37499C9.58342 4.79166 9.16675 5.62499 9.37508 6.66666L10.8334 11.25L10.2084 11.4583C6.87508 12.5 4.37508 14.7917 2.70841 17.7083C1.25008 20.8333 1.04175 24.5833 2.08341 27.9167C3.12508 31.0417 5.41675 33.75 8.33342 35.4167C10.2084 36.25 12.2917 36.875 14.1667 36.875C15.6251 36.875 16.8751 36.6667 18.3334 36.25L31.2501 31.875L31.6667 31.6667C32.9167 30.8333 33.5417 29.5833 33.1251 28.3333L32.5001 26.25C33.3334 26.875 34.3751 27.7083 35.6251 29.1667C37.7084 31.6667 38.3334 36.875 37.5001 43.3333V43.5417C37.5001 45 38.5418 46.25 40.0001 46.25H45.8334C47.0834 46.25 48.1251 45.2083 48.3334 43.9583C48.7501 41.0417 49.7918 29.7917 43.3334 23.125ZM17.2917 32.7083C15.0001 33.3333 12.2917 33.3333 10.0001 32.0833C7.70842 31.0417 6.25008 29.1667 5.41675 26.6667C4.58341 24.1667 4.79175 21.4583 6.04175 19.375C7.08342 17.0833 8.95842 15.625 11.4584 14.7917L12.0834 14.5833L14.1667 20.8333C14.3751 21.6667 15.0001 22.0833 15.8334 22.0833C16.0417 22.0833 16.2501 22.0833 16.4584 22.0833C17.2917 21.875 17.9167 20.8333 17.5001 19.7917L15.4167 13.5417L23.7501 10.8333L29.7917 28.75L17.2917 32.7083ZM45.0001 42.0833H41.2501C41.6668 37.7083 41.8751 30.625 38.5417 26.4583C36.2501 23.75 33.9584 22.2917 32.2917 21.6667C35.8334 22.0833 38.7501 23.3333 40.8334 25.4167C45.6251 30.625 45.2084 39.375 45.0001 42.0833Z" fill="#393939"/>
</g>
</svg>