<?xml version="1.0" encoding="UTF-8" standalone="no"?>
<!-- Created with Inkscape (http://www.inkscape.org/) -->

<svg
   width="93mm"
   height="101.05332mm"
   viewBox="0 0 93 101.05332"
   version="1.1"
   id="svg5"
   inkscape:export-filename="C:\Users\MM3D\Desktop\bitmap.png"
   inkscape:export-xdpi="122.32"
   inkscape:export-ydpi="122.32"
   inkscape:version="1.2.2 (732a01da63, 2022-12-09)"
   sodipodi:docname="Foundry_Dash.svg"
   xmlns:inkscape="http://www.inkscape.org/namespaces/inkscape"
   xmlns:sodipodi="http://sodipodi.sourceforge.net/DTD/sodipodi-0.dtd"
   xmlns="http://www.w3.org/2000/svg"
   xmlns:svg="http://www.w3.org/2000/svg">
  <sodipodi:namedview
     id="namedview7"
     pagecolor="#ffffff"
     bordercolor="#666666"
     borderopacity="1.0"
     inkscape:pageshadow="2"
     inkscape:pageopacity="0.0"
     inkscape:pagecheckerboard="0"
     inkscape:document-units="mm"
     showgrid="false"
     inkscape:snap-global="false"
     inkscape:zoom="0.70710678"
     inkscape:cx="-50.204582"
     inkscape:cy="251.02291"
     inkscape:window-width="1920"
     inkscape:window-height="991"
     inkscape:window-x="-9"
     inkscape:window-y="-9"
     inkscape:window-maximized="1"
     inkscape:current-layer="layer1"
     showguides="false"
     inkscape:showpageshadow="2"
     inkscape:deskcolor="#d1d1d1" />
  <defs
     id="defs2">
    <linearGradient
       id="linearGradient69724"
       inkscape:swatch="solid">
      <stop
         style="stop-color:#ffffff;stop-opacity:1;"
         offset="0"
         id="stop69722" />
    </linearGradient>
    <linearGradient
       id="linearGradient15501"
       inkscape:swatch="solid">
      <stop
         style="stop-color:#000000;stop-opacity:1;"
         offset="0"
         id="stop15499" />
    </linearGradient>
    <linearGradient
       id="linearGradient10654"
       inkscape:swatch="solid">
      <stop
         style="stop-color:#000000;stop-opacity:1;"
         offset="0"
         id="stop10652" />
    </linearGradient>
    <linearGradient
       id="linearGradient3790"
       inkscape:swatch="solid">
      <stop
         style="stop-color:#760041;stop-opacity:1;"
         offset="0"
         id="stop3788" />
    </linearGradient>
  </defs>
  <g
     inkscape:label="Layer 1"
     inkscape:groupmode="layer"
     id="layer1"
     transform="translate(-57.596107,-97.973335)">
    <g
       id="g28804"
       transform="matrix(1.048535,0,0,1,-291.30477,-220.52652)"
       inkscape:export-filename="C:\Users\MM3D\Desktop\Web_Icons\foundry_dash.png"
       inkscape:export-xdpi="122.32"
       inkscape:export-ydpi="122.32">
      <g
         id="g29117">
        <path
           style="fill:#000000;stroke-width:0.184648"
           id="path57627"
           d="" />
        <path
           style="fill:#000000;stroke-width:0.184648"
           id="path57319"
           d="" />
        <g
           style="fill:#000000;fill-opacity:0.909091"
           id="g57749"
           transform="matrix(0.26458333,0,0,0.26458333,339.35278,201.7002)">
          <path
             id="path57737"
             style="fill:#000000;fill-opacity:0.909091"
             d="m 143.29731,441.44752 c -32.7102,0 -58.654648,6.6467 -77.031248,17.20703 -18.3764,10.5606 -29.72743,25.57491 -29.88281,41.94531 -0.0025,0.2518 0.03611,0.48283 0.05859,0.73243 -0.01785,0.4272 -0.02406,0.85914 0.02539,1.27734 0,0 0.18555,1.4281 0.18555,1.5 0.28306,2.5088 5.278,46.56195 10.31836,72.00195 2.3371,11.797 5.5109,30.38127 18.99609,46.69727 7.6198,9.22 18.4999,17.40623 33.716799,23.36523 l -0.0117,0.0234 c 0,0 4.869179,2.11356 12.886719,4.23828 -2.88422,-12.59881 -5.52262,-25.48249 -7.53711,-38.07031 -2.58183,-23.94381 -9.813238,-45.32623 -19.474608,-63.10352 -5.31806,-12.28513 -22.8451,-25.43476 -25.78515,-40.80859 -3.00167,-15.7274 0.21047,-25.17304 7.85351,-31.625 18.77435,-16.02646 55.294048,-19.33549 75.923828,-19.79687 20.63122,0.46138 54.62067,1.73054 73.39453,17.75781 7.64324,6.45196 14.48908,12.703 11.48828,28.42968 -2.94179,15.373 -20.5261,34.13548 -25.8457,46.41993 -9.66118,17.77713 -17.94541,39.50149 -20.52734,63.44531 -1.98933,12.4328 -3.83389,24.90264 -6.0625,37.14844 5.24831,-1.56339 8.34765,-2.94336 8.34765,-2.94336 l -0.0469,-0.0918 c 16.742,-6.027 28.61012,-14.60544 36.70312,-24.39844 13.486,-16.316 16.67081,-34.90026 19.00781,-46.69726 5.18499,-26.168 10.41016,-73.00176 10.41016,-73.00196 0.09,-0.5868 0.11288,-1.18928 0.0898,-1.80078 0.006,-0.2024 0.0449,-0.40589 0.0449,-0.61718 0,-16.6983 -11.46389,-31.83519 -29.96289,-42.30469 -18.499,-10.46951 -44.5914,-16.92773 -77.27539,-16.92773 z" />
          <path
             d="m 143.23741,464.44139 c -18.03292,0.43306 -45.98564,1.91419 -62.396707,16.95675 -6.680949,6.05586 -7.449626,16.3131 -4.825801,31.07495 2.569962,14.43 18.201196,23.63457 22.849828,35.16549 8.44522,16.6859 14.89284,37.36664 17.14968,59.84048 2.87725,19.30525 4.57246,39.82963 9.02313,58.1071 4.35715,14.67155 9.18041,25.18723 18.19057,25.12566 l 1.09266,0.0223 c 9.01752,0.0711 13.1094,-9.36632 17.46934,-24.04734 4.45127,-18.27747 6.49401,-38.44438 9.37076,-57.74963 2.25692,-22.47386 6.24446,-41.7381 14.6895,-58.42385 4.64998,-11.53027 22.31616,-29.30577 24.88765,-43.73498 2.62306,-14.76118 2.44628,-20.76581 -4.23484,-26.82168 -16.41065,-15.04327 -45.23157,-15.08219 -63.26577,-15.51525 z"
             fill="#ffffff"
             id="path57739-9-3"
             style="fill:#000004;fill-opacity:1;stroke:none;stroke-width:20.8079;stroke-miterlimit:4;stroke-dasharray:none;stroke-opacity:1"
             sodipodi:nodetypes="cccccccccccccc" />
        </g>
      </g>
    </g>
    <rect
       style="font-variation-settings:normal;fill:#000000;fill-opacity:0;fill-rule:evenodd;stroke:#000000;stroke-width:4.831;stroke-linecap:butt;stroke-linejoin:miter;stroke-miterlimit:4;stroke-dasharray:none;stroke-dashoffset:0;stroke-opacity:1;stop-color:#000000"
       id="rect8620-8"
       width="57.307396"
       height="26.680195"
       x="75.442413"
       y="168.489"
       ry="0"
       inkscape:export-filename="C:\Users\MM3D\Desktop\Web_Icons\foundry_dash.png"
       inkscape:export-xdpi="122.32"
       inkscape:export-ydpi="122.32" />
    <rect
       style="font-variation-settings:normal;vector-effect:none;fill:#000000;fill-opacity:1;fill-rule:evenodd;stroke-width:0.309559;stroke-linecap:butt;stroke-linejoin:miter;stroke-miterlimit:4;stroke-dasharray:none;stroke-dashoffset:0;stroke-opacity:1;-inkscape-stroke:none;stop-color:#000000"
       id="rect20515-9-5"
       width="93"
       height="5"
       x="57.596107"
       y="194.02666"
       ry="2.5"
       inkscape:export-filename="C:\Users\MM3D\Desktop\Web_Icons\foundry_dash.png"
       inkscape:export-xdpi="122.32"
       inkscape:export-ydpi="122.32" />
  </g>
</svg>
