<svg width="20" height="15" viewBox="0 0 20 15" fill="none" xmlns="http://www.w3.org/2000/svg">
<path d="M5.5 2.5C5.21667 2.5 4.97917 2.40417 4.7875 2.2125C4.59583 2.02083 4.5 1.78333 4.5 1.5C4.5 1.21667 4.59583 0.979167 4.7875 0.7875C4.97917 0.595833 5.21667 0.5 5.5 0.5C5.78333 0.5 6.02083 0.595833 6.2125 0.7875C6.40417 0.979167 6.5 1.21667 6.5 1.5C6.5 1.78333 6.40417 2.02083 6.2125 2.2125C6.02083 2.40417 5.78333 2.5 5.5 2.5ZM1 2.5C0.716667 2.5 0.479167 2.40417 0.2875 2.2125C0.0958333 2.02083 0 1.78333 0 1.5C0 1.21667 0.0958333 0.979167 0.2875 0.7875C0.479167 0.595833 0.716667 0.5 1 0.5C1.28333 0.5 1.52083 0.595833 1.7125 0.7875C1.90417 0.979167 2 1.21667 2 1.5C2 1.78333 1.90417 2.02083 1.7125 2.2125C1.52083 2.40417 1.28333 2.5 1 2.5ZM19 2.5C18.7167 2.5 18.4792 2.40417 18.2875 2.2125C18.0958 2.02083 18 1.78333 18 1.5C18 1.21667 18.0958 0.979167 18.2875 0.7875C18.4792 0.595833 18.7167 0.5 19 0.5C19.2833 0.5 19.5208 0.595833 19.7125 0.7875C19.9042 0.979167 20 1.21667 20 1.5C20 1.78333 19.9042 2.02083 19.7125 2.2125C19.5208 2.40417 19.2833 2.5 19 2.5ZM14.5 2.5C14.2167 2.5 13.9792 2.40417 13.7875 2.2125C13.5958 2.02083 13.5 1.78333 13.5 1.5C13.5 1.21667 13.5958 0.979167 13.7875 0.7875C13.9792 0.595833 14.2167 0.5 14.5 0.5C14.7833 0.5 15.0208 0.595833 15.2125 0.7875C15.4042 0.979167 15.5 1.21667 15.5 1.5C15.5 1.78333 15.4042 2.02083 15.2125 2.2125C15.0208 2.40417 14.7833 2.5 14.5 2.5ZM10 2.5C9.71667 2.5 9.47917 2.40417 9.2875 2.2125C9.09583 2.02083 9 1.78333 9 1.5C9 1.21667 9.09583 0.979167 9.2875 0.7875C9.47917 0.595833 9.71667 0.5 10 0.5C10.2833 0.5 10.5208 0.595833 10.7125 0.7875C10.9042 0.979167 11 1.21667 11 1.5C11 1.78333 10.9042 2.02083 10.7125 2.2125C10.5208 2.40417 10.2833 2.5 10 2.5ZM7.5 6.5C7.21667 6.5 6.97917 6.40417 6.7875 6.2125C6.59583 6.02083 6.5 5.78333 6.5 5.5C6.5 5.21667 6.59583 4.97917 6.7875 4.7875C6.97917 4.59583 7.21667 4.5 7.5 4.5C7.78333 4.5 8.02083 4.59583 8.2125 4.7875C8.40417 4.97917 8.5 5.21667 8.5 5.5C8.5 5.78333 8.40417 6.02083 8.2125 6.2125C8.02083 6.40417 7.78333 6.5 7.5 6.5ZM3 6.5C2.71667 6.5 2.47917 6.40417 2.2875 6.2125C2.09583 6.02083 2 5.78333 2 5.5C2 5.21667 2.09583 4.97917 2.2875 4.7875C2.47917 4.59583 2.71667 4.5 3 4.5C3.28333 4.5 3.52083 4.59583 3.7125 4.7875C3.90417 4.97917 4 5.21667 4 5.5C4 5.78333 3.90417 6.02083 3.7125 6.2125C3.52083 6.40417 3.28333 6.5 3 6.5ZM16.5 6.5C16.2167 6.5 15.9792 6.40417 15.7875 6.2125C15.5958 6.02083 15.5 5.78333 15.5 5.5C15.5 5.21667 15.5958 4.97917 15.7875 4.7875C15.9792 4.59583 16.2167 4.5 16.5 4.5C16.7833 4.5 17.0208 4.59583 17.2125 4.7875C17.4042 4.97917 17.5 5.21667 17.5 5.5C17.5 5.78333 17.4042 6.02083 17.2125 6.2125C17.0208 6.40417 16.7833 6.5 16.5 6.5ZM12 6.5C11.7167 6.5 11.4792 6.40417 11.2875 6.2125C11.0958 6.02083 11 5.78333 11 5.5C11 5.21667 11.0958 4.97917 11.2875 4.7875C11.4792 4.59583 11.7167 4.5 12 4.5C12.2833 4.5 12.5208 4.59583 12.7125 4.7875C12.9042 4.97917 13 5.21667 13 5.5C13 5.78333 12.9042 6.02083 12.7125 6.2125C12.5208 6.40417 12.2833 6.5 12 6.5ZM7.5 14.5C7.21667 14.5 6.97917 14.4042 6.7875 14.2125C6.59583 14.0208 6.5 13.7833 6.5 13.5C6.5 13.2167 6.59583 12.9792 6.7875 12.7875C6.97917 12.5958 7.21667 12.5 7.5 12.5C7.78333 12.5 8.02083 12.5958 8.2125 12.7875C8.40417 12.9792 8.5 13.2167 8.5 13.5C8.5 13.7833 8.40417 14.0208 8.2125 14.2125C8.02083 14.4042 7.78333 14.5 7.5 14.5ZM3 14.5C2.71667 14.5 2.47917 14.4042 2.2875 14.2125C2.09583 14.0208 2 13.7833 2 13.5C2 13.2167 2.09583 12.9792 2.2875 12.7875C2.47917 12.5958 2.71667 12.5 3 12.5C3.28333 12.5 3.52083 12.5958 3.7125 12.7875C3.90417 12.9792 4 13.2167 4 13.5C4 13.7833 3.90417 14.0208 3.7125 14.2125C3.52083 14.4042 3.28333 14.5 3 14.5ZM16.5 14.5C16.2167 14.5 15.9792 14.4042 15.7875 14.2125C15.5958 14.0208 15.5 13.7833 15.5 13.5C15.5 13.2167 15.5958 12.9792 15.7875 12.7875C15.9792 12.5958 16.2167 12.5 16.5 12.5C16.7833 12.5 17.0208 12.5958 17.2125 12.7875C17.4042 12.9792 17.5 13.2167 17.5 13.5C17.5 13.7833 17.4042 14.0208 17.2125 14.2125C17.0208 14.4042 16.7833 14.5 16.5 14.5ZM12 14.5C11.7167 14.5 11.4792 14.4042 11.2875 14.2125C11.0958 14.0208 11 13.7833 11 13.5C11 13.2167 11.0958 12.9792 11.2875 12.7875C11.4792 12.5958 11.7167 12.5 12 12.5C12.2833 12.5 12.5208 12.5958 12.7125 12.7875C12.9042 12.9792 13 13.2167 13 13.5C13 13.7833 12.9042 14.0208 12.7125 14.2125C12.5208 14.4042 12.2833 14.5 12 14.5ZM5.5 10.5C5.21667 10.5 4.97917 10.4042 4.7875 10.2125C4.59583 10.0208 4.5 9.78333 4.5 9.5C4.5 9.21667 4.59583 8.97917 4.7875 8.7875C4.97917 8.59583 5.21667 8.5 5.5 8.5C5.78333 8.5 6.02083 8.59583 6.2125 8.7875C6.40417 8.97917 6.5 9.21667 6.5 9.5C6.5 9.78333 6.40417 10.0208 6.2125 10.2125C6.02083 10.4042 5.78333 10.5 5.5 10.5ZM1 10.5C0.716667 10.5 0.479167 10.4042 0.2875 10.2125C0.0958333 10.0208 0 9.78333 0 9.5C0 9.21667 0.0958333 8.97917 0.2875 8.7875C0.479167 8.59583 0.716667 8.5 1 8.5C1.28333 8.5 1.52083 8.59583 1.7125 8.7875C1.90417 8.97917 2 9.21667 2 9.5C2 9.78333 1.90417 10.0208 1.7125 10.2125C1.52083 10.4042 1.28333 10.5 1 10.5ZM19 10.5C18.7167 10.5 18.4792 10.4042 18.2875 10.2125C18.0958 10.0208 18 9.78333 18 9.5C18 9.21667 18.0958 8.97917 18.2875 8.7875C18.4792 8.59583 18.7167 8.5 19 8.5C19.2833 8.5 19.5208 8.59583 19.7125 8.7875C19.9042 8.97917 20 9.21667 20 9.5C20 9.78333 19.9042 10.0208 19.7125 10.2125C19.5208 10.4042 19.2833 10.5 19 10.5ZM14.5 10.5C14.2167 10.5 13.9792 10.4042 13.7875 10.2125C13.5958 10.0208 13.5 9.78333 13.5 9.5C13.5 9.21667 13.5958 8.97917 13.7875 8.7875C13.9792 8.59583 14.2167 8.5 14.5 8.5C14.7833 8.5 15.0208 8.59583 15.2125 8.7875C15.4042 8.97917 15.5 9.21667 15.5 9.5C15.5 9.78333 15.4042 10.0208 15.2125 10.2125C15.0208 10.4042 14.7833 10.5 14.5 10.5ZM10 10.5C9.71667 10.5 9.47917 10.4042 9.2875 10.2125C9.09583 10.0208 9 9.78333 9 9.5C9 9.21667 9.09583 8.97917 9.2875 8.7875C9.47917 8.59583 9.71667 8.5 10 8.5C10.2833 8.5 10.5208 8.59583 10.7125 8.7875C10.9042 8.97917 11 9.21667 11 9.5C11 9.78333 10.9042 10.0208 10.7125 10.2125C10.5208 10.4042 10.2833 10.5 10 10.5Z" fill="#393939"/>
</svg>
