<svg width="30" height="31" viewBox="0 0 30 31" fill="none" xmlns="http://www.w3.org/2000/svg">
<path d="M26.75 15.3137C26.75 21.639 21.5128 26.8088 15 26.8088C8.4872 26.8088 3.25 21.639 3.25 15.3137C3.25 8.98835 8.4872 3.8186 15 3.8186C21.5128 3.8186 26.75 8.98835 26.75 15.3137Z" stroke="#FB8500" stroke-width="2.5"/>
<path d="M16.5 13.0259H12V14.8559H13.5V20.3461H12V22.1762H18V20.3461H16.5V13.0259Z" fill="#FB8500"/>
<path d="M14.9997 11.719C15.9201 11.719 16.6663 10.9874 16.6663 10.085C16.6663 9.18255 15.9201 8.45099 14.9997 8.45099C14.0792 8.45099 13.333 9.18255 13.333 10.085C13.333 10.9874 14.0792 11.719 14.9997 11.719Z" fill="#FB8500"/>
</svg>
