<svg width="20" height="20" viewBox="0 0 20 20" fill="none" xmlns="http://www.w3.org/2000/svg">
<path d="M2.0625 20C1.47917 20 0.989583 19.8021 0.59375 19.4062C0.197917 19.0104 0 18.5208 0 17.9375C0 17.3542 0.197917 16.8646 0.59375 16.4688C0.989583 16.0729 1.47917 15.875 2.0625 15.875C2.64583 15.875 3.13542 16.0729 3.53125 16.4688C3.92708 16.8646 4.125 17.3542 4.125 17.9375C4.125 18.5208 3.92708 19.0104 3.53125 19.4062C3.13542 19.8021 2.64583 20 2.0625 20ZM10 20C9.41667 20 8.92708 19.8021 8.53125 19.4062C8.13542 19.0104 7.9375 18.5208 7.9375 17.9375C7.9375 17.3542 8.13542 16.8646 8.53125 16.4688C8.92708 16.0729 9.41667 15.875 10 15.875C10.5833 15.875 11.0729 16.0729 11.4688 16.4688C11.8646 16.8646 12.0625 17.3542 12.0625 17.9375C12.0625 18.5208 11.8646 19.0104 11.4688 19.4062C11.0729 19.8021 10.5833 20 10 20ZM17.9375 20C17.3542 20 16.8646 19.8021 16.4688 19.4062C16.0729 19.0104 15.875 18.5208 15.875 17.9375C15.875 17.3542 16.0729 16.8646 16.4688 16.4688C16.8646 16.0729 17.3542 15.875 17.9375 15.875C18.5208 15.875 19.0104 16.0729 19.4062 16.4688C19.8021 16.8646 20 17.3542 20 17.9375C20 18.5208 19.8021 19.0104 19.4062 19.4062C19.0104 19.8021 18.5208 20 17.9375 20ZM2.0625 12.0625C1.47917 12.0625 0.989583 11.8646 0.59375 11.4688C0.197917 11.0729 0 10.5833 0 10C0 9.41667 0.197917 8.92708 0.59375 8.53125C0.989583 8.13542 1.47917 7.9375 2.0625 7.9375C2.64583 7.9375 3.13542 8.13542 3.53125 8.53125C3.92708 8.92708 4.125 9.41667 4.125 10C4.125 10.5833 3.92708 11.0729 3.53125 11.4688C3.13542 11.8646 2.64583 12.0625 2.0625 12.0625ZM10 12.0625C9.41667 12.0625 8.92708 11.8646 8.53125 11.4688C8.13542 11.0729 7.9375 10.5833 7.9375 10C7.9375 9.41667 8.13542 8.92708 8.53125 8.53125C8.92708 8.13542 9.41667 7.9375 10 7.9375C10.5833 7.9375 11.0729 8.13542 11.4688 8.53125C11.8646 8.92708 12.0625 9.41667 12.0625 10C12.0625 10.5833 11.8646 11.0729 11.4688 11.4688C11.0729 11.8646 10.5833 12.0625 10 12.0625ZM17.9375 12.0625C17.3542 12.0625 16.8646 11.8646 16.4688 11.4688C16.0729 11.0729 15.875 10.5833 15.875 10C15.875 9.41667 16.0729 8.92708 16.4688 8.53125C16.8646 8.13542 17.3542 7.9375 17.9375 7.9375C18.5208 7.9375 19.0104 8.13542 19.4062 8.53125C19.8021 8.92708 20 9.41667 20 10C20 10.5833 19.8021 11.0729 19.4062 11.4688C19.0104 11.8646 18.5208 12.0625 17.9375 12.0625ZM2.0625 4.125C1.47917 4.125 0.989583 3.92708 0.59375 3.53125C0.197917 3.13542 0 2.64583 0 2.0625C0 1.47917 0.197917 0.989583 0.59375 0.59375C0.989583 0.197917 1.47917 0 2.0625 0C2.64583 0 3.13542 0.197917 3.53125 0.59375C3.92708 0.989583 4.125 1.47917 4.125 2.0625C4.125 2.64583 3.92708 3.13542 3.53125 3.53125C3.13542 3.92708 2.64583 4.125 2.0625 4.125ZM10 4.125C9.41667 4.125 8.92708 3.92708 8.53125 3.53125C8.13542 3.13542 7.9375 2.64583 7.9375 2.0625C7.9375 1.47917 8.13542 0.989583 8.53125 0.59375C8.92708 0.197917 9.41667 0 10 0C10.5833 0 11.0729 0.197917 11.4688 0.59375C11.8646 0.989583 12.0625 1.47917 12.0625 2.0625C12.0625 2.64583 11.8646 3.13542 11.4688 3.53125C11.0729 3.92708 10.5833 4.125 10 4.125ZM17.9375 4.125C17.3542 4.125 16.8646 3.92708 16.4688 3.53125C16.0729 3.13542 15.875 2.64583 15.875 2.0625C15.875 1.47917 16.0729 0.989583 16.4688 0.59375C16.8646 0.197917 17.3542 0 17.9375 0C18.5208 0 19.0104 0.197917 19.4062 0.59375C19.8021 0.989583 20 1.47917 20 2.0625C20 2.64583 19.8021 3.13542 19.4062 3.53125C19.0104 3.92708 18.5208 4.125 17.9375 4.125Z" fill="black"/>
</svg>
