<svg width="20" height="21" viewBox="0 0 20 21" fill="none" xmlns="http://www.w3.org/2000/svg">
<path d="M10 20.5C8.63333 20.5 7.34167 20.2375 6.125 19.7125C4.90833 19.1875 3.84583 18.4708 2.9375 17.5625C2.02917 16.6542 1.3125 15.5917 0.7875 14.375C0.2625 13.1583 0 11.8667 0 10.5C0 9.11667 0.2625 7.82083 0.7875 6.6125C1.3125 5.40417 2.02917 4.34583 2.9375 3.4375C3.84583 2.52917 4.90833 1.8125 6.125 1.2875C7.34167 0.7625 8.63333 0.5 10 0.5C11.3833 0.5 12.6792 0.7625 13.8875 1.2875C15.0958 1.8125 16.1542 2.52917 17.0625 3.4375C17.9708 4.34583 18.6875 5.40417 19.2125 6.6125C19.7375 7.82083 20 9.11667 20 10.5C20 11.8667 19.7375 13.1583 19.2125 14.375C18.6875 15.5917 17.9708 16.6542 17.0625 17.5625C16.1542 18.4708 15.0958 19.1875 13.8875 19.7125C12.6792 20.2375 11.3833 20.5 10 20.5ZM10 18.45C10.4333 17.85 10.8083 17.225 11.125 16.575C11.4417 15.925 11.7 15.2333 11.9 14.5H8.1C8.3 15.2333 8.55833 15.925 8.875 16.575C9.19167 17.225 9.56667 17.85 10 18.45ZM7.4 18.05C7.1 17.5 6.8375 16.9292 6.6125 16.3375C6.3875 15.7458 6.2 15.1333 6.05 14.5H3.1C3.58333 15.3333 4.1875 16.0583 4.9125 16.675C5.6375 17.2917 6.46667 17.75 7.4 18.05ZM12.6 18.05C13.5333 17.75 14.3625 17.2917 15.0875 16.675C15.8125 16.0583 16.4167 15.3333 16.9 14.5H13.95C13.8 15.1333 13.6125 15.7458 13.3875 16.3375C13.1625 16.9292 12.9 17.5 12.6 18.05ZM2.25 12.5H5.65C5.6 12.1667 5.5625 11.8375 5.5375 11.5125C5.5125 11.1875 5.5 10.85 5.5 10.5C5.5 10.15 5.5125 9.8125 5.5375 9.4875C5.5625 9.1625 5.6 8.83333 5.65 8.5H2.25C2.16667 8.83333 2.10417 9.1625 2.0625 9.4875C2.02083 9.8125 2 10.15 2 10.5C2 10.85 2.02083 11.1875 2.0625 11.5125C2.10417 11.8375 2.16667 12.1667 2.25 12.5ZM7.65 12.5H12.35C12.4 12.1667 12.4375 11.8375 12.4625 11.5125C12.4875 11.1875 12.5 10.85 12.5 10.5C12.5 10.15 12.4875 9.8125 12.4625 9.4875C12.4375 9.1625 12.4 8.83333 12.35 8.5H7.65C7.6 8.83333 7.5625 9.1625 7.5375 9.4875C7.5125 9.8125 7.5 10.15 7.5 10.5C7.5 10.85 7.5125 11.1875 7.5375 11.5125C7.5625 11.8375 7.6 12.1667 7.65 12.5ZM14.35 12.5H17.75C17.8333 12.1667 17.8958 11.8375 17.9375 11.5125C17.9792 11.1875 18 10.85 18 10.5C18 10.15 17.9792 9.8125 17.9375 9.4875C17.8958 9.1625 17.8333 8.83333 17.75 8.5H14.35C14.4 8.83333 14.4375 9.1625 14.4625 9.4875C14.4875 9.8125 14.5 10.15 14.5 10.5C14.5 10.85 14.4875 11.1875 14.4625 11.5125C14.4375 11.8375 14.4 12.1667 14.35 12.5ZM13.95 6.5H16.9C16.4167 5.66667 15.8125 4.94167 15.0875 4.325C14.3625 3.70833 13.5333 3.25 12.6 2.95C12.9 3.5 13.1625 4.07083 13.3875 4.6625C13.6125 5.25417 13.8 5.86667 13.95 6.5ZM8.1 6.5H11.9C11.7 5.76667 11.4417 5.075 11.125 4.425C10.8083 3.775 10.4333 3.15 10 2.55C9.56667 3.15 9.19167 3.775 8.875 4.425C8.55833 5.075 8.3 5.76667 8.1 6.5ZM3.1 6.5H6.05C6.2 5.86667 6.3875 5.25417 6.6125 4.6625C6.8375 4.07083 7.1 3.5 7.4 2.95C6.46667 3.25 5.6375 3.70833 4.9125 4.325C4.1875 4.94167 3.58333 5.66667 3.1 6.5Z" fill="#393939"/>
</svg>
