<svg width="31" height="30" viewBox="0 0 31 30" fill="#000000" xmlns="http://www.w3.org/2000/svg">
<g id="Crucible Outline">
<path id="Vector" d="M25.75 5.37481C23.5 3.49981 19.875 2.62481 17.25 2.37481C15.75 2.12481 14.125 2.24981 12.625 2.37481C10.125 2.74981 6.625 3.49981 4.375 5.37481C3.25 6.37481 2.625 7.87481 2.875 9.37481L4 17.8748C4.25 19.8748 4.875 21.7498 5.875 23.2498C9.25 28.4998 14.125 28.4998 15 28.3748C15.125 28.3748 15.25 28.3748 15.5 28.3748C17 28.3748 20.5 27.8748 23.5 23.9998C24.875 22.2498 25.75 19.9998 26.125 17.4998L27.25 9.37481C27.5 7.87481 26.875 6.37481 25.75 5.37481ZM6 7.24981C7.75 5.74981 11.125 5.12481 12.875 4.87481C14.125 4.74981 15.5 4.74981 16.875 4.87481C20.125 5.24981 22.75 6.12481 24.125 7.24981C24.625 7.62481 24.875 8.24981 24.75 8.87481C23.875 9.12481 22.625 9.74981 21.25 10.4998C14.875 8.62481 10.25 9.99981 8.625 10.7498C7.375 9.99981 6.125 9.49981 5.375 9.24981V9.12481C5.25 8.37481 5.5 7.74981 6 7.24981ZM18.875 12.4998C18.125 13.2498 17.625 13.9998 17.25 14.8748C15.875 18.8748 15.125 19.4998 14.875 19.4998C14.625 19.4998 14 18.8748 12.5 14.8748C12.25 13.9998 11.75 13.2498 11 12.4998C12.75 12.1248 15.375 11.8748 18.875 12.4998ZM21.625 22.4998C18.75 26.2498 15.375 25.9998 15.25 25.8748H15.125H15C14.875 25.8748 10.875 26.2498 8.125 21.8748C7.375 20.6248 6.875 19.1248 6.625 17.4998L5.75 11.9998C7.5 12.7498 9.625 14.1248 10.25 15.7498C11.375 19.1248 12.625 22.1248 14.875 22.1248H15C17.25 22.1248 18.5 19.1248 19.625 15.7498C20.125 14.1248 22.5 12.7498 24.375 11.8748L23.625 17.2498C23.375 19.2498 22.625 21.1248 21.625 22.4998Z" fill="#393939"/>
</g>
</svg>