<svg width="18" height="19" viewBox="0 0 18 19" fill="none" xmlns="http://www.w3.org/2000/svg">
<path d="M0 18.5V13.5H4L8 9.5V6.3C7.4 6.08333 6.91667 5.72083 6.55 5.2125C6.18333 4.70417 6 4.13333 6 3.5C6 2.66667 6.29167 1.95833 6.875 1.375C7.45833 0.791667 8.16667 0.5 9 0.5C9.83333 0.5 10.5417 0.791667 11.125 1.375C11.7083 1.95833 12 2.66667 12 3.5C12 4.13333 11.8167 4.70417 11.45 5.2125C11.0833 5.72083 10.6 6.08333 10 6.3V9.5L14 13.5H18V18.5H13V15.45L9 11.45L5 15.45V18.5H0Z" fill="#393939"/>
</svg>
