<svg width="10" height="21" viewBox="0 0 10 21" fill="none" xmlns="http://www.w3.org/2000/svg">
<path d="M5 20.5C3.61667 20.5 2.4375 20.0125 1.4625 19.0375C0.4875 18.0625 0 16.8833 0 15.5C0 14.7 0.175 13.9542 0.525 13.2625C0.875 12.5708 1.36667 11.9833 2 11.5V3.5C2 2.66667 2.29167 1.95833 2.875 1.375C3.45833 0.791667 4.16667 0.5 5 0.5C5.83333 0.5 6.54167 0.791667 7.125 1.375C7.70833 1.95833 8 2.66667 8 3.5V11.5C8.63333 11.9833 9.125 12.5708 9.475 13.2625C9.825 13.9542 10 14.7 10 15.5C10 16.8833 9.5125 18.0625 8.5375 19.0375C7.5625 20.0125 6.38333 20.5 5 20.5ZM4 9.5H6V8.5H5V7.5H6V5.5H5V4.5H6V3.5C6 3.21667 5.90417 2.97917 5.7125 2.7875C5.52083 2.59583 5.28333 2.5 5 2.5C4.71667 2.5 4.47917 2.59583 4.2875 2.7875C4.09583 2.97917 4 3.21667 4 3.5V9.5Z" fill="#393939"/>
</svg>
