<svg width="301" height="300" viewBox="0 0 301 300" fill="none" xmlns="http://www.w3.org/2000/svg">
<path d="M150 164.7H149.2C129.6 164.7 119.6 145.2 111.1 125.3C108.2 118.6 95.1003 111.1 75.3003 104.7L73.2003 104.1C65.2003 101.4 59.5003 95.3 58.3003 88.2C56.5003 77.3 61.4003 66.8 71.4003 60C88.1003 48.6 114 43.9 132.8 42C144 40.9 155.5 40.8 167 41.9C186.9 43.8 214.1 48.5 230.8 60.1C240.6 67.1 245.4 77.5 243.7 88V88.1C242.7 93.7 238.6 98.6 232.7 101.1C229.9 102.3 228.4 102.9 227.4 103.2L227 103.4L226.6 103.5C205.9 110.2 191.3 118.6 188.3 125.3C179.3 146.1 169.6 164.7 150 164.7ZM76.3003 94.5L78.2003 95.1C101.9 102.7 116 111.5 120.3 121.3C129.3 142.5 137 154.7 149.2 154.7H150C163.6 154.7 171.2 139.6 179.1 121.3C184.5 108.9 205.9 99.7 223.1 94L224.2 93.4H224.5C225.3 93.1 226.9 92.4 228.6 91.7C231.3 90.5 233.3 88.4 233.7 86.2C234.8 79.6 231.5 72.8 224.9 68.1C209.3 57.3 181.3 53.2 165.9 51.7C155.1 50.7 144.2 50.7 133.7 51.8C108.8 54.4 88.6003 60.2 76.9003 68.2C70.1003 72.8 66.8003 79.4 68.0003 86.4C68.7003 89.9 71.9003 93 76.3003 94.5Z" fill="black" fill-opacity="0.87"/>
<path d="M149.903 277.9C45.9941 277.9 36.7022 162.957 31.7066 101.148C31.307 96.762 31.0072 92.6747 30.7075 88.8864C29.5086 75.2288 33.5051 63.1662 42.697 53.0974C71.6715 21.3957 143.408 20.0997 150.702 20C150.802 20 151.102 20 151.202 20C158.495 20.0997 230.132 21.3957 259.207 53.0974C268.399 63.1662 272.495 75.1291 271.296 88.8864C270.996 92.575 270.697 96.5626 270.297 100.75C265.301 162.757 256.109 277.9 151.901 278C151.601 278 151.302 278 150.902 278C150.602 277.9 150.203 277.9 149.903 277.9ZM150.902 29.9691C146.106 29.9691 76.1676 31.1654 49.9906 59.7767C42.697 67.7519 39.5997 76.9235 40.5988 87.8895C40.8986 91.7774 41.2982 95.8648 41.5979 100.251C44.0957 131.355 47.5927 173.923 62.6794 208.515C80.0641 248.492 108.639 267.931 149.803 267.931C150.103 267.931 150.502 267.931 150.802 267.931H150.902C192.765 268.23 221.64 248.691 239.224 208.316C254.311 173.624 257.708 131.056 260.206 99.9521C260.506 95.7651 260.905 91.7774 261.205 87.9892C262.204 77.0232 259.107 67.8516 251.713 59.8764C225.636 31.1654 155.698 29.9691 150.902 29.9691Z" fill="black" fill-opacity="0.87"/>
</svg>
