<svg xmlns="http://www.w3.org/2000/svg" height="48" viewBox="0 96 960 960" width="48"><path d="M435 618V189h91v429h-91Zm44.246 342Q400 960 331.185 930.221q-68.816-29.778-120.796-81.977-51.98-52.199-81.684-121.205Q99 658.034 99 578.868q0-84.06 34.405-158.752Q167.81 345.423 232 292l71 70q-55.176 36.798-84.088 93.781Q190 512.765 190 578.05q0 120.643 84.489 205.796Q358.977 869 480.014 869q121.343 0 205.665-85.032Q770 698.936 770 578.234q0-67.638-28.5-124.436T658 359l71-71q63 54 98 130.443 35 76.442 35 160.808 0 78.563-29.9 147.824-29.9 69.261-81.879 121.39-51.979 52.129-121.866 81.832Q558.468 960 479.246 960Z"/></svg>