<svg xmlns="http://www.w3.org/2000/svg" width="50" height="50" viewBox="0 0 50 50" fill="none">
  <path d="M14.7917 16.0416H16.4583V17.7083C16.4583 18.5416 16.875 19.1666 17.2917 19.7916L21.4583 23.7499C22.0833 24.3749 22.7083 24.5833 23.5417 24.5833H26.4583C27.2917 24.5833 27.9167 24.3749 28.5417 23.7499L32.9167 19.7916C33.5417 19.1666 33.9583 18.5416 33.9583 17.7083V16.0416H35.4167C36.6667 16.0416 37.9167 14.9999 37.9167 13.5416V7.08325C37.9167 5.83325 36.875 4.58325 35.4167 4.58325H14.7917C13.5417 4.79159 12.5 5.83325 12.5 7.08325V13.5416C12.5 14.9999 13.5417 16.0416 14.7917 16.0416ZM30.625 17.7083L26.4583 21.6666H23.5417L19.5833 17.9166V16.0416H30.625V17.7083ZM15.625 7.91658H34.5833V12.9166H15.625V7.91658Z" fill="#393939"/>
  <path d="M26.6666 29.1667V27.9167C26.6666 27.0833 26.0416 26.25 24.9999 26.25C24.1666 26.25 23.3333 26.875 23.3333 27.9167V29.1667C23.3333 33.75 27.0833 37.5 31.6666 37.5H46.2499C47.0833 37.5 47.9166 36.875 47.9166 35.8333C47.9166 35 47.2916 34.1667 46.2499 34.1667H31.6666C28.9583 34.5833 26.6666 32.0833 26.6666 29.1667Z" fill="#393939"/>
  <path d="M46.4583 40.8333H3.54167C2.70833 40.8333 1.875 41.4583 1.875 42.4999C1.875 43.3333 2.5 44.1666 3.54167 44.1666H46.4583C47.2917 44.1666 48.125 43.5416 48.125 42.4999C48.125 41.4583 47.2917 40.8333 46.4583 40.8333Z" fill="#393939"/>
</svg>
