<?xml version="1.0" encoding="UTF-8" standalone="no"?>
<!-- Created with Inkscape (http://www.inkscape.org/) -->

<svg
   xmlns:dc="http://purl.org/dc/elements/1.1/"
   xmlns:cc="http://creativecommons.org/ns#"
   xmlns:rdf="http://www.w3.org/1999/02/22-rdf-syntax-ns#"
   xmlns:svg="http://www.w3.org/2000/svg"
   xmlns="http://www.w3.org/2000/svg"
   xmlns:sodipodi="http://sodipodi.sourceforge.net/DTD/sodipodi-0.dtd"
   xmlns:inkscape="http://www.inkscape.org/namespaces/inkscape"
   width="50"
   height="49.999996"
   viewBox="0 0 13.229167 13.229167"
   version="1.1"
   id="svg1631"
   inkscape:version="0.92.4 (5da689c313, 2019-01-14)"
   sodipodi:docname="process_248px.svg"
   inkscape:export-filename="C:\Users\barto\Desktop\Work\Graphics\icons\crucible_248px.png"
   inkscape:export-xdpi="496"
   inkscape:export-ydpi="496">
  <defs
     id="defs1625" />
  <sodipodi:namedview
     id="base"
     pagecolor="#ffffff"
     bordercolor="#666666"
     borderopacity="1.0"
     inkscape:pageopacity="0.0"
     inkscape:pageshadow="2"
     inkscape:zoom="11.313708"
     inkscape:cx="36.714755"
     inkscape:cy="23.410454"
     inkscape:document-units="px"
     inkscape:current-layer="layer1"
     showgrid="false"
     units="px"
     inkscape:pagecheckerboard="true"
     inkscape:window-width="1920"
     inkscape:window-height="1017"
     inkscape:window-x="-8"
     inkscape:window-y="-8"
     inkscape:window-maximized="1"
     showguides="false"
     fit-margin-top="0"
     fit-margin-left="0"
     fit-margin-right="0"
     fit-margin-bottom="0"
     inkscape:guide-bbox="true"
     inkscape:snap-bbox="true"
     inkscape:snap-page="true"
     inkscape:bbox-paths="true">
    <sodipodi:guide
       position="7.2319475,17.040985"
       orientation="0,1"
       id="guide1483"
       inkscape:locked="false" />
    <sodipodi:guide
       position="4.1868764,16.323746"
       orientation="0,1"
       id="guide1485"
       inkscape:locked="false" />
  </sodipodi:namedview>
  <metadata
     id="metadata1628">
    <rdf:RDF>
      <cc:Work
         rdf:about="">
        <dc:format>image/svg+xml</dc:format>
        <dc:type
           rdf:resource="http://purl.org/dc/dcmitype/StillImage" />
        <dc:title></dc:title>
      </cc:Work>
    </rdf:RDF>
  </metadata>
  <g
     inkscape:label="Layer 1"
     inkscape:groupmode="layer"
     id="layer1"
     transform="translate(-2.1630165,-289.16989)">
    <ellipse
       style="opacity:0.79040061;fill:none;fill-opacity:1;stroke:none;stroke-width:1.3580637;stroke-linecap:round;stroke-linejoin:round;stroke-miterlimit:4;stroke-dasharray:none;stroke-dashoffset:0;stroke-opacity:1;paint-order:markers stroke fill"
       id="path1576-6-5-3-6-2-7-4-2-7"
       cx="-1.1181884"
       cy="284.58295"
       rx="6.2662282"
       ry="3.2427039" />
    <g
       id="g8178"
       transform="matrix(1.0762504,0,0,1.0762951,-96.175931,142.94216)"
       style="fill:#ffffff;fill-opacity:1;stroke-width:0.92911327">
      <path
         id="path3092-2-6-4-1-5"
         d="m 97.510336,138.04159 c -1.454872,0 -2.6088,0.29565 -3.426148,0.76533 -0.81734,0.46969 -1.322207,1.13743 -1.329118,1.86552 -1.11e-4,0.0112 0.0016,0.0215 0.0026,0.0326 -7.94e-4,0.019 -0.0011,0.0382 0.0011,0.0568 0,0 0.0083,0.0635 0.0083,0.0667 0.01259,0.11158 0.234706,2.07092 0.458888,3.20239 0.103949,0.52467 0.245118,1.35122 0.84491,2.07687 0.33891,0.41006 0.822838,0.7742 1.499648,1.03922 l -5.3e-4,0.001 c 0,0 0.510572,0.22619 1.278994,0.3297 0.0572,0.009 0.109534,0.021 0.168465,0.0289 -0.01061,-0.003 -0.02093,-0.008 -0.03153,-0.0114 0.155101,0.017 0.316323,0.0302 0.488344,0.0336 0.180769,0.004 0.347591,-0.005 0.507463,-0.0181 -0.0011,2.6e-4 -0.0021,7.9e-4 -0.0031,0.001 0.004,-5.3e-4 0.007,-0.001 0.01085,-0.002 0.820182,-0.0686 1.346171,-0.31316 1.346171,-0.31316 l -0.0021,-0.004 c 0.744627,-0.26807 1.272487,-0.64966 1.632467,-1.0852 0.59979,-0.72567 0.74147,-1.5522 0.84543,-2.07687 0.23059,-1.16385 0.46302,-3.24683 0.46302,-3.24684 0.004,-0.0261 0.005,-0.0529 0.004,-0.0801 2.6e-4,-0.009 0.002,-0.018 0.002,-0.0274 -1e-5,-0.74267 -0.50994,-1.4159 -1.33274,-1.88154 -0.82281,-0.46564 -1.983323,-0.75293 -3.437002,-0.75293 z m -0.0021,0.75034 h 5.29e-4 c 0.0029,-3e-5 0.007,-3e-5 0.0098,0 0.0011,-1e-5 0.0027,-1e-5 0.0036,0 0.667359,0.009 1.358816,0.0471 2.043285,0.22066 0.0037,0.001 0.0074,0.001 0.01138,0.002 0.276,0.0792 0.63631,0.17371 0.96893,0.36328 0.33261,0.18957 0.65746,0.51841 0.72295,0.99012 0.002,0.0142 0.003,0.0285 0.004,0.0429 0.01,0.43719 -0.25854,0.75624 -0.48834,0.95498 -0.22979,0.19874 -0.43607,0.34525 -0.51727,0.46508 -0.0112,0.0159 -0.0237,0.031 -0.0372,0.045 -0.624405,0.66912 -0.662087,1.72225 -1.066598,2.77709 -0.266221,1.07347 -1.574869,1.62156 -2.515608,1.0139 -0.424072,-0.25428 -0.655826,-0.65612 -0.794785,-1.03922 -0.14029,-0.38676 -0.210709,-0.77273 -0.308507,-1.07022 -0.0057,-0.0172 -0.01095,-0.0348 -0.01394,-0.0527 -0.149,-0.84858 -0.573725,-1.65005 -1.259353,-2.12493 l 0.01138,0.008 c -0.662879,-0.4203 -0.677035,-1.41857 -0.02326,-1.85518 1.000612,-0.67014 2.203511,-0.71522 3.249414,-0.74053 z"
         style="fill:#ffffff;fill-opacity:1;stroke:none;stroke-width:0.24561879px;stroke-linecap:butt;stroke-linejoin:miter;stroke-opacity:1"
         inkscape:connector-curvature="0" />
      <path
         id="path2475-2"
         d="m 97.517688,139.16644 c -0.94853,0.0122 -1.93301,0.0899 -2.79621,0.51367 -0.35141,0.1706 -0.69043,0.55255 -0.55242,0.96841 0.13518,0.40651 0.58438,0.55728 0.82889,0.88212 0.44421,0.47006 0.72775,1.07274 0.84646,1.70584 0.15134,0.54384 0.2775,1.10206 0.5116,1.61695 0.22918,0.41328 0.68724,0.68906 1.16117,0.6873 0,1.7e-4 0,2.6e-4 0,5.3e-4 0.4743,0.002 0.93286,-0.27423 1.1622,-0.68781 0.23412,-0.51488 0.36026,-1.07312 0.5116,-1.61696 0.11871,-0.6331 0.40225,-1.23578 0.846462,-1.70584 0.24456,-0.32482 0.69366,-0.47563 0.82889,-0.88212 0.138,-0.41584 -0.201,-0.79781 -0.55242,-0.96841 -0.863202,-0.42379 -1.847672,-0.50147 -2.796222,-0.51367 z"
         style="color:#000000;font-style:normal;font-variant:normal;font-weight:normal;font-stretch:normal;font-size:medium;line-height:normal;font-family:sans-serif;font-variant-ligatures:normal;font-variant-position:normal;font-variant-caps:normal;font-variant-numeric:normal;font-variant-alternates:normal;font-feature-settings:normal;text-indent:0;text-align:start;text-decoration:none;text-decoration-line:none;text-decoration-style:solid;text-decoration-color:#000000;letter-spacing:normal;word-spacing:normal;text-transform:none;writing-mode:lr-tb;direction:ltr;text-orientation:mixed;dominant-baseline:auto;baseline-shift:baseline;text-anchor:start;white-space:normal;shape-padding:0;clip-rule:nonzero;display:inline;overflow:visible;visibility:visible;opacity:1;isolation:auto;mix-blend-mode:normal;color-interpolation:sRGB;color-interpolation-filters:linearRGB;solid-color:#000000;solid-opacity:1;vector-effect:none;fill:#ffffff;fill-opacity:1;fill-rule:nonzero;stroke:none;stroke-width:0.69683492;stroke-linecap:round;stroke-linejoin:round;stroke-miterlimit:4;stroke-dasharray:none;stroke-dashoffset:0;stroke-opacity:1;paint-order:markers stroke fill;color-rendering:auto;image-rendering:auto;shape-rendering:auto;text-rendering:auto;enable-background:accumulate"
         inkscape:connector-curvature="0" />
    </g>
  </g>
</svg>
