<?xml version="1.0" standalone="no"?>
<!DOCTYPE svg PUBLIC "-//W3C//DTD SVG 20010904//EN"
 "http://www.w3.org/TR/2001/REC-SVG-20010904/DTD/svg10.dtd">
<svg version="1.0" xmlns="http://www.w3.org/2000/svg"
 width="225.000000pt" height="225.000000pt" viewBox="0 0 225.000000 225.000000"
 preserveAspectRatio="xMidYMid meet">
<metadata>
Created by potrace 1.16, written by Peter Selinger 2001-2019
</metadata>
<g transform="translate(0.000000,225.000000) scale(0.100000,-0.100000)"
fill="#000000" stroke="none">
<path d="M320 2039 c-55 -25 -95 -62 -123 -114 -20 -36 -22 -58 -25 -222 l-4
-183 51 0 51 0 0 148 c1 265 25 290 287 299 l153 6 0 44 0 43 -172 0 c-152 0
-178 -3 -218 -21z"/>
<path d="M1500 2016 l0 -43 153 -6 c184 -8 199 -11 241 -51 44 -41 56 -100 56
-266 l0 -130 51 0 51 0 -4 173 c-5 183 -12 216 -63 283 -13 18 -48 44 -77 58
-50 25 -58 26 -230 26 l-178 0 0 -44z"/>
<path d="M36 1154 c-19 -18 -20 -28 -6 -55 10 -19 33 -19 1073 -19 814 0 1066
3 1075 12 15 15 15 51 0 66 -9 9 -260 12 -1069 12 -948 0 -1059 -2 -1073 -16z"/>
<path d="M172 548 c3 -201 11 -230 75 -290 61 -58 101 -68 291 -68 l172 0 0
44 0 43 -147 6 c-171 7 -212 16 -247 58 -38 44 -46 89 -46 247 l0 142 -51 0
-51 0 4 -182z"/>
<path d="M1948 573 c-4 -192 -15 -224 -91 -262 -42 -21 -66 -24 -202 -29
l-155 -5 0 -43 0 -44 175 0 c189 0 216 5 282 56 18 14 45 49 60 77 26 50 27
61 31 230 l4 177 -50 0 -50 0 -4 -157z"/>
</g>
</svg>
