<svg width="20" height="21" viewBox="0 0 20 21" fill="none" xmlns="http://www.w3.org/2000/svg">
<path fill-rule="evenodd" clip-rule="evenodd" d="M6.1 19.7125C7.31667 20.2375 8.61667 20.5 10 20.5C11.3833 20.5 12.6833 20.2375 13.9 19.7125C15.1167 19.1875 16.175 18.475 17.075 17.575C17.975 16.675 18.6875 15.6167 19.2125 14.4C19.7375 13.1833 20 11.8833 20 10.5C20 9.11667 19.7375 7.81667 19.2125 6.6C18.6875 5.38333 17.975 4.325 17.075 3.425C16.7408 3.09081 16.3848 2.78248 16.007 2.5L19 2.5V0.5H10C8.61667 0.5 7.31667 0.7625 6.1 1.2875C4.88333 1.8125 3.825 2.525 2.925 3.425C2.025 4.325 1.3125 5.38333 0.7875 6.6C0.2625 7.81667 0 9.11667 0 10.5C0 11.8833 0.2625 13.1833 0.7875 14.4C1.3125 15.6167 2.025 16.675 2.925 17.575C3.825 18.475 4.88333 19.1875 6.1 19.7125ZM10 2.5C12.2333 2.5 14.125 3.275 15.675 4.825C17.225 6.375 18 8.26667 18 10.5C18 12.7333 17.225 14.625 15.675 16.175C14.125 17.725 12.2333 18.5 10 18.5C7.76667 18.5 5.875 17.725 4.325 16.175C2.775 14.625 2 12.7333 2 10.5C2 8.26667 2.775 6.375 4.325 4.825C5.875 3.275 7.76667 2.5 10 2.5Z" fill="#393939"/>
</svg>
