<svg width="20" height="20" viewBox="0 0 20 20" fill="none" xmlns="http://www.w3.org/2000/svg">
<g id="material-symbols:update">
<path id="Vector" d="M10 17.5C8.95833 17.5 7.9825 17.3019 7.0725 16.9058C6.1625 16.5097 5.37083 15.9753 4.6975 15.3025C4.02417 14.6286 3.48972 13.8369 3.09417 12.9275C2.69861 12.0181 2.50056 11.0422 2.5 10C2.5 8.95833 2.69806 7.9825 3.09417 7.0725C3.49028 6.1625 4.02472 5.37083 4.6975 4.6975C5.37139 4.02417 6.16306 3.48972 7.0725 3.09417C7.98194 2.69861 8.95778 2.50056 10 2.5C11.1389 2.5 12.2189 2.74306 13.24 3.22917C14.2611 3.71528 15.1256 4.40278 15.8333 5.29167V3.33333H17.5V8.33333H12.5V6.66667H14.7917C14.2222 5.88889 13.5208 5.27778 12.6875 4.83333C11.8542 4.38889 10.9583 4.16667 10 4.16667C8.375 4.16667 6.99639 4.73278 5.86417 5.865C4.73194 6.99722 4.16611 8.37556 4.16667 10C4.16667 11.625 4.73278 13.0036 5.865 14.1358C6.99722 15.2681 8.37556 15.8339 10 15.8333C11.4583 15.8333 12.7328 15.3611 13.8233 14.4167C14.9139 13.4722 15.5561 12.2778 15.75 10.8333H17.4583C17.25 12.7361 16.4342 14.3231 15.0108 15.5942C13.5875 16.8653 11.9172 17.5006 10 17.5ZM12.3333 13.5L9.16667 10.3333V5.83333H10.8333V9.66667L13.5 12.3333L12.3333 13.5Z" fill="#FDFDFD"/>
</g>
</svg>