<svg width="20" height="21" viewBox="0 0 20 21" fill="none" xmlns="http://www.w3.org/2000/svg">
<path d="M1 18.5V7.2C0.716667 7.01667 0.479167 6.78333 0.2875 6.5C0.0958333 6.21667 0 5.88333 0 5.5V2.5C0 1.95 0.195833 1.47917 0.5875 1.0875C0.979167 0.695833 1.45 0.5 2 0.5H18C18.55 0.5 19.0208 0.695833 19.4125 1.0875C19.8042 1.47917 20 1.95 20 2.5V5.5C20 5.88333 19.9042 6.21667 19.7125 6.5C19.5208 6.78333 19.2833 7.01667 19 7.2V18.5C19 19.05 18.8042 19.5208 18.4125 19.9125C18.0208 20.3042 17.55 20.5 17 20.5H3C2.45 20.5 1.97917 20.3042 1.5875 19.9125C1.19583 19.5208 1 19.05 1 18.5ZM3 7.5V18.5H17V7.5H3ZM18 5.5V2.5H2V5.5H18ZM7 12.5H13V10.5H7V12.5Z" fill="#393939"/>
</svg>
