<?xml version="1.0" encoding="UTF-8" standalone="no"?>
<svg
   id="eJ0kyINwLUd1"
   viewBox="0 0 300 300"
   shape-rendering="geometricPrecision"
   text-rendering="geometricPrecision"
   version="1.1"
   sodipodi:docname="volumeCrucible.svg"
   inkscape:version="1.2.2 (732a01da63, 2022-12-09)"
   xmlns:inkscape="http://www.inkscape.org/namespaces/inkscape"
   xmlns:sodipodi="http://sodipodi.sourceforge.net/DTD/sodipodi-0.dtd"
   xmlns="http://www.w3.org/2000/svg"
   xmlns:svg="http://www.w3.org/2000/svg">
  <defs
     id="defs148">
    <linearGradient
       id="linearGradient2632"
       inkscape:swatch="gradient">
      <stop
         style="stop-color:#87706d;stop-opacity:1;"
         offset="0"
         id="stop2628" />
      <stop
         style="stop-color:#87706d;stop-opacity:0;"
         offset="1"
         id="stop2630" />
    </linearGradient>
    <clipPath
       clipPathUnits="userSpaceOnUse"
       id="clipPath1614">
      <path
         id="path1616"
         style="fill:#ff0000;fill-opacity:1;fill-rule:nonzero;stroke:none;stroke-width:0.78159"
         d="m -87.535547,-41.805455 c 0.01684,1.120283 0.03824,2.240107 0.05777,3.36012 0.0065,0.401961 0.01118,0.802605 0.02426,1.204076 0.08049,2.470521 -0.59288,3.779968 -1.309088,3.86434 v 0.143198 c 0.05052,0.638338 0.102653,1.276744 0.147893,1.916035 0.110833,1.630042 0.210971,3.262275 0.283078,4.898998 0.01785,0.411664 0.03105,0.824131 0.04391,1.236346 0.0039,0.124086 -0.0048,0.228705 -0.0046,0.346903 0.04081,-0.146229 0.07676,-0.333136 0.105143,-0.572793 0.0012,-0.01022 0.0026,-0.04055 0.0035,-0.03026 0.04557,0.54051 0.05109,1.096955 0.0647,1.64174 0.01762,0.85573 0.02455,1.7113 0.03004,2.567486 0.0087,0.649697 0.004,1.29966 -0.01849,1.948305 -0.04832,0.734812 -0.115677,1.46451 -0.176779,2.196379 -0.05555,0.764334 -0.110333,1.528669 -0.165225,2.293192 -0.02599,0.441477 -0.06142,0.882333 -0.09937,1.321056 -0.02464,0.284854 -0.0641,0.533554 -0.109764,0.764396 0.06196,0.371885 0.162876,0.750325 0.424038,0.367073 0.0016,-0.0023 0.005,-0.01159 0.0046,-0.0081 -0.0034,0.0302 -0.01079,0.05886 -0.01502,0.08874 -0.0064,0.04555 -0.01146,0.09136 -0.01733,0.137147 -0.02984,0.232866 -0.058,0.467728 -0.08435,0.701875 -0.04035,0.354782 -0.05878,0.715253 -0.08781,1.07298 -0.02103,0.259115 -0.02716,0.299822 -0.0543,0.5627078 -6.21e-4,0.00609 -0.0017,0.012051 -0.0023,0.018154 0.04154,0.1208552 0.07501,0.2731389 0.09474,0.4598488 0.04221,0.3992896 0.0456,0.8093743 0.05199,1.2141606 0.0026,0.3088942 -0.0081,0.6157406 -0.01964,0.9237301 -0.0013,0.033282 -0.0024,0.065428 -0.0046,0.09681 0.0053,0.0094 0.01709,0.0133 0.01964,0.024205 0.0044,0.015913 0.0052,0.020797 0.0035,0.038321 -7.57e-4,0.025196 -0.01882,0.041171 -0.03466,0.058489 v 0.00207 c -0.0021,0.018309 -0.0056,0.034893 -0.0081,0.052437 0.03999,0.1598819 0.06378,0.3610168 0.04737,0.6191824 -0.02298,0.3618181 -0.04986,0.7231849 -0.100521,1.0770124 -0.0011,0.00764 -0.0035,0.014519 -0.0046,0.022181 0.0391,-0.030917 0.07456,-0.052468 0.102832,-0.056475 0.06956,-0.00981 0.09839,0.083334 0.04622,0.3811905 -0.02619,0.1495027 -0.0704,0.28526 -0.103987,0.4295955 -0.0084,0.034676 -0.01615,0.070065 -0.02426,0.1048771 0.04226,0.035327 0.06901,0.1223061 0.02311,0.262194 -0.05212,0.1589917 -0.104211,0.3175208 -0.154826,0.4780006 -0.04611,0.156881 -0.07919,0.3242113 -0.105143,0.4941346 -0.02114,0.1324115 -0.03191,0.2688338 -0.04737,0.4033757 -0.0095,0.1111897 -0.02896,0.2156745 -0.05315,0.3186671 V 41.806262 H 88.7626 V -3.2145014 c -0.0024,-0.00382 -0.0053,-0.00867 -0.0081,-0.012103 -0.0255,-0.034728 -0.05064,-0.069652 -0.07395,-0.1089116 -0.0041,-0.00785 -0.0085,-0.014364 -0.01272,-0.022181 0,0.00289 -0.0024,-0.00227 -0.0035,-0.00403 -0.003,-0.00382 -0.0053,-0.00805 -0.0081,-0.012103 -0.0071,-0.010326 -0.02029,-0.029048 -0.02774,-0.040335 -0.02011,-0.029131 -0.0404,-0.057239 -0.06124,-0.084708 -0.0265,-0.026343 -0.05011,-0.061236 -0.07279,-0.09681 C 88.475,-3.62721 88.45311,-3.656082 88.43785,-3.694507 88.42965,-3.71515 88.42336,-3.737548 88.4159,-3.759047 l -0.01846,-0.1169797 c -0.0053,-0.034428 0.0035,-0.030762 0.0024,-0.054451 -0.01077,-0.040304 -0.02,-0.086329 -0.02656,-0.139165 -1.42e-4,-0.00114 -5.91e-4,-0.00392 0,-0.00403 -0.003,-0.00971 -0.0076,-0.019197 -0.0081,-0.030256 -0.0036,-0.051746 -0.0024,-0.095344 -0.0024,-0.1411807 -0.384227,-0.5168269 -0.485894,-1.6828179 0.06471,-3.0817904 0.03686,-0.093619 0.076,-0.1928893 0.116693,-0.286397 -5.91e-4,-0.2138756 2.84e-4,-0.4278008 -0.0024,-0.6413677 -0.0035,-0.355428 -0.0082,-0.7101519 -0.02195,-1.0649118 -0.01591,-0.3516455 -0.04253,-0.7000807 -0.08666,-1.0447427 -0.06452,-0.584799 -0.114623,-1.175447 -0.171,-1.762753 -0.07234,-0.888879 -0.137121,-1.784542 -0.1063,-2.684466 0.02029,-1.064214 0.05017,-2.127342 0.08203,-3.190701 0.03727,-1.371837 0.04928,-2.745108 0.03348,-4.118465 -0.0053,-0.876133 -0.0098,-1.752316 -0.02775,-2.627993 -0.01414,-0.688348 0.05478,-1.243821 0.168693,-1.686111 0.0047,-0.123689 0.0065,-0.24349 0.01733,-0.375139 0.135009,-1.644404 0.167569,-3.30967 0.207974,-4.967572 0.0207,-1.06827 0.01349,-2.13808 -0.0069,-3.206837 -1.336968,-0.585057 -2.416193,-3.019021 -2.680567,-6.821083 z" />
    </clipPath>
    <clipPath
       clipPathUnits="userSpaceOnUse"
       id="clipPath1624">
      <path
         id="path1626"
         style="fill:#ff0000;fill-opacity:1;fill-rule:nonzero;stroke:none"
         d="m 0.58203125,36.080078 c -0.005316,0.01235 -0.0105607,0.02464 -0.015625,0.03711 -0.0550388,0.130547 -0.10445045,0.262958 -0.16601563,0.390624 -0.0280205,0.05606 -0.0514041,0.113662 -0.0742187,0.171876 v 1.767578 H 1.8867188 v -2.367188 z" />
    </clipPath>
    <clipPath
       clipPathUnits="userSpaceOnUse"
       id="clipPath1682">
      <path
         id="path1684"
         style="fill:#ff0000;fill-opacity:1;fill-rule:nonzero;stroke:none;stroke-width:0.574999"
         d="m -113.86328,-131.14165 v 79.383261 c 0.39073,-0.919071 0.79803,-1.83607 1.24764,-2.746622 0.1038,-0.210208 1.15242,-2.19957 1.36918,-2.53905 0.2476,-0.387763 0.54974,-0.76238 0.82444,-1.143779 1.37226,-1.905229 2.08268,-2.678483 2.68565,-2.682024 0.60697,-0.0035 1.11894,0.783917 2.07061,1.969743 0.0174,-0.05004 0.0189,-0.09397 0.0381,-0.144693 0.56057,-1.481191 1.15776,-2.957024 1.91832,-4.40803 1.00427,-2.054578 1.93215,-4.122804 2.95948,-6.173651 1.121653,-2.240749 2.280961,-4.478322 3.77221,-6.645631 0.944446,-1.425059 1.859437,-2.85724 2.808655,-4.281418 0.20773,-0.456422 0.488992,-0.931537 0.929872,-1.439201 0.08544,-0.09838 0.171638,-0.196437 0.257729,-0.294558 0.202225,-0.288001 0.399206,-0.577285 0.607712,-0.863861 0.396378,-0.547771 0.798301,-1.094624 1.205173,-1.639876 0.214088,-0.429056 0.395777,-0.862424 0.477384,-1.310005 0.208967,-1.051545 0.358789,-2.106481 0.51985,-3.160896 0.256734,-1.426065 0.648294,-2.838667 1.090953,-4.248693 0.242732,-0.706795 0.356154,-1.100383 0.692645,-1.802658 0.521369,-1.088083 1.270342,-2.131677 2.186299,-3.124718 1.176006,-1.241667 2.451702,-2.44783 3.924502,-3.5769 1.348741,-1.08315 2.667072,-2.17966 3.956718,-3.2875 1.702811,-1.44696 3.387169,-2.90279 5.197036,-4.30467 2.293347,-1.74047 4.648532,-3.45949 7.345262,-4.99284 0.45769,-0.24855 0.904964,-0.50446 1.373575,-0.74587 2.061697,-1.06208 4.329546,-1.98492 6.608686,-2.87495 2.080123,-0.75817 4.197224,-1.49261 6.058083,-2.4357 1.87917,-0.9115 3.682694,-1.8783 5.44305,-2.86806 2.180722,-1.3001 4.349802,-2.60689 6.575005,-3.88092 2.54564,-1.39297 5.230687,-2.70594 8.238526,-3.73623 z m 131.552818,0 c 2.169673,0.35896 4.324755,0.74839 6.440281,1.20837 2.754864,0.57581 5.487003,1.1873 8.219488,1.79835 2.499715,0.59685 4.984705,1.23412 7.191505,2.16182 2.127807,0.85264 4.200536,1.75052 6.208914,2.69838 2.334491,1.10114 4.739107,2.15199 7.002597,3.30473 3.285264,1.67168 6.456872,3.42085 9.420274,5.29084 2.605445,1.6033 5.160717,3.23987 7.960297,4.72843 1.999861,1.08131 4.003717,2.16742 5.785707,3.37621 1.401428,1.01958 2.637587,2.10345 3.551089,3.30473 1.079109,1.36751 2.006871,2.77156 2.791085,4.207351 1.113927,2.19725 2.100471,4.416078 3.117634,6.629266 1.600668,3.533493 3.334508,7.04746 5.519198,10.474021 0.370245,0.561591 0.718806,1.127997 1.109991,1.684662 1.757779,2.50147 3.933683,4.892424 5.875032,7.344131 2.065952,2.516984 4.20195,5.01628 6.0903,7.581838 1.69902,2.462272 3.34734,4.971531 3.91133,7.625768 0.1458,0.86372 0.23875,1.728494 0.29287,2.594177 0.55727,0.532579 1.03463,1.176442 1.3604,1.969743 0.7714,1.87892 0.39511,0.906327 1.11877,2.918016 0.46635,1.554146 0.60514,1.882447 0.92109,3.46751 0.43247,2.169712 0.57539,4.357652 1.1012,6.521608 0.36199,1.508198 0.78482,3.011928 1.18321,4.517411 v -95.407362 z m -35.595816,4.03681 c -1.826637,-0.004 -3.681037,0.045 -5.434265,0.37638 -0.934293,0.17658 -1.345909,0.32315 -2.231693,0.58309 -2.654727,0.82481 -4.918771,1.98876 -7.097786,3.18673 -2.115915,1.2186 -4.185211,2.46439 -6.264558,3.70437 -1.998751,1.13905 -4.070399,2.23593 -6.211843,3.28147 -2.22074,1.12233 -4.722722,2.01649 -7.203218,2.9206 -2.253056,0.86524 -4.422654,1.81187 -6.37878,2.89993 -1.567857,0.90528 -2.98058,1.89223 -4.35649,2.89734 0.243308,0.57023 0.365326,1.23732 0.323625,2.00334 -0.10228,1.87893 -1.322678,3.64773 -2.363487,5.40022 -1.201785,2.065836 -3.050833,3.956269 -4.939308,5.82397 -1.248059,1.231004 -2.733612,2.369095 -4.088511,3.557946 -1.160285,1.061727 -2.326466,2.119643 -3.400258,3.212569 -1.468624,1.467446 -2.713761,3.002542 -3.884964,4.557032 -0.01221,0.02275 -0.01985,0.04616 -0.03222,0.0689 -0.44797,0.773823 -0.979465,1.528098 -1.57273,2.266886 -0.173522,0.206177 -0.354804,0.409899 -0.534494,0.614093 -1.310489,1.882059 -2.513071,3.789386 -3.767814,5.684446 -1.383521,2.006132 -2.4494,4.080558 -3.486656,6.155562 -1.018668,2.038742 -1.945262,4.093443 -2.941913,6.135753 -0.701467,1.331736 -1.249949,2.686795 -1.761632,4.047154 -0.495934,1.31845 -1.397004,2.255976 -2.45867,2.877534 0.90112,0.823954 1.351837,2.057061 0.945979,3.673358 -0.487508,1.941481 -1.421902,3.831001 -2.155547,5.743008 -0.752972,1.992949 -1.182959,4.019196 -1.625439,6.041876 -0.37849,1.51302 -0.43438,3.047303 -0.81858,4.559614 -0.10388,0.408857 -0.23939,0.814754 -0.35877,1.222155 -0.82913,2.455833 -2.01952,4.861221 -3.21282,7.262308 -0.99783,1.795046 -1.6693,3.636183 -2.18045,5.497546 -0.28773,1.044959 -0.45856,2.099478 -0.56231,3.155728 -0.0657,0.734229 -0.0886,1.46981 -0.1069,2.204875 0.0136,0.263101 -0.034,0.527641 -0.0132,0.790655 0.003,0.035 0.0554,0.06277 0.0717,0.09646 0.0343,0.07066 0.0634,0.141675 0.0952,0.212736 0.1541,0.371301 0.32351,0.740397 0.48763,1.110189 1.31614,2.965391 -0.63782,4.7850591 -3.20843,5.114277 -2e-4,0.2604482 5.6e-4,0.5208149 0,0.7811806 0.0191,0.00154 0.0381,0.00362 0.0571,0.00517 2.74696,0.2220119 2.45098,1.789512 -0.13033,1.6924141 -0.047,0.4894612 -0.10635,0.9786915 -0.14644,1.4684814 -0.0554,0.8793947 -0.1186,1.7596785 -0.10543,2.6398214 0.0199,0.62165124 0.0601,1.24321622 0.0922,1.86466983 0.008,0.17165218 0.0144,0.34274071 0.0307,0.51418378 0.10251,1.06010339 -0.75977,1.61996539 -1.6723,1.65107259 0.0688,0.2926568 0.13905,0.5854067 0.20061,0.8785052 0.14047,0.6960826 0.26739,1.3931147 0.35877,2.0920473 0.0226,0.1757983 0.0393,0.3519338 0.0556,0.5279645 0.006,0.066422 -0.0267,0.1106331 -0.0278,0.1731171 0.0613,-0.065372 0.11419,-0.1528521 0.15522,-0.2695804 0.002,-0.00437 0.003,-0.017335 0.004,-0.012921 0.0578,0.2308174 0.0648,0.468439 0.082,0.7010815 0.0223,0.3654264 0.0311,0.7307883 0.0381,1.0964086 0.011,0.2774421 0.005,0.5550011 -0.0234,0.831996 -0.0612,0.31379 -0.14661,0.6253961 -0.22405,0.9379332 -0.0704,0.3263921 -0.13983,0.6527963 -0.2094,0.9792743 -0.0329,0.188527 -0.0778,0.376789 -0.12594,0.564138 -0.0309,0.120425 -0.0851,0.219568 -0.14497,0.313506 0.078,0.162741 0.20326,0.337801 0.54328,0.169671 0.002,-9.7e-4 0.006,-0.005 0.006,-0.0034 -0.004,0.0129 -0.0137,0.02514 -0.019,0.0379 -0.008,0.01946 -0.0145,0.03901 -0.022,0.05857 -0.0378,0.09944 -0.0735,0.199738 -0.1069,0.299726 -0.0512,0.1515 -0.0745,0.305438 -0.11129,0.4582 -0.0267,0.110655 -0.0344,0.128036 -0.0688,0.240297 -7.9e-4,0.0026 -0.002,0.0051 -0.003,0.0078 0.0526,0.05161 0.0951,0.11664 0.12008,0.196371 0.0535,0.170511 0.0578,0.345631 0.0659,0.518491 0.003,0.131904 -0.0102,0.262942 -0.0249,0.394465 -0.002,0.0148 -0.003,0.02914 -0.006,0.04307 0.004,0.0059 -10e-4,0.01073 -0.004,0.01722 -0.006,0.02222 -0.0147,0.043 -0.0234,0.06287 0.049,0.06787 0.0834,0.149027 0.063,0.257523 -0.0291,0.154509 -0.0632,0.308825 -0.1274,0.459923 -0.001,0.0033 -0.004,0.0062 -0.006,0.0095 0.0496,-0.0132 0.0945,-0.02241 0.13033,-0.02412 0.0882,-0.0042 0.12464,0.03559 0.0586,0.162782 -0.0332,0.06384 -0.0892,0.121816 -0.13179,0.183453 -0.0106,0.01481 -0.0207,0.02992 -0.0307,0.04479 0.0534,0.01508 0.0868,0.05223 0.0293,0.111967 -0.0661,0.0679 -0.13208,0.135592 -0.19623,0.204123 -0.0584,0.06699 -0.10036,0.138442 -0.13326,0.211013 -0.0268,0.05655 -0.0404,0.114794 -0.06,0.172256 -0.0153,0.06043 -0.0512,0.116853 -0.0937,0.172256 -0.0453,0.05801 -0.11267,0.108307 -0.1728,0.161059 -0.045,0.03859 -0.0847,0.07829 -0.11568,0.121441 -0.0217,0.0304 -0.0327,0.0631 -0.0395,0.0956 -0.002,0.04148 -0.0251,0.07947 -0.0527,0.117134 l -0.0102,0.01464 c -0.0876,0.126308 -0.30468,0.07456 -0.21673,-0.05167 0.004,-0.0059 0.009,-0.01221 0.0132,-0.01809 0.0196,-0.02672 0.0348,-0.04922 0.0352,-0.07924 0.003,-0.01523 0.0129,-0.02967 0.0176,-0.04479 -0.0497,0.02122 -0.10117,0.03646 -0.15229,0.04479 -0.026,0.01708 -0.0347,0.04155 -0.0644,0.05684 -0.32978,0.169464 -0.28467,0.06316 -0.2299,-0.08096 -0.11739,-0.04452 -0.19674,-0.1331 -0.1933,-0.254938 -0.0571,-0.0147 -0.11323,-0.03538 -0.15815,-0.07235 V 131.14204 H 113.86326 V 17.127596 c -0.3455,0.06402 -0.79426,-0.08081 -0.89912,-0.479733 -0.004,-0.0154 -0.009,-0.03025 -0.0132,-0.04565 -0.0127,-0.06657 -0.0262,-0.13369 -0.0307,-0.200678 -0.01,-0.07643 -0.0213,-0.152365 -0.019,-0.2291 -0.002,-0.07602 -0.004,-0.152287 -0.0103,-0.228239 -0.006,-0.06571 -0.0126,-0.131049 -0.0249,-0.196372 -0.0403,-0.05243 -0.0972,-0.100677 -0.11568,-0.158475 -0.0132,-0.03863 -0.0203,-0.07793 -0.0278,-0.117134 -0.007,-0.01058 -0.0144,-0.02102 -0.0205,-0.03187 -0.004,-0.0066 -0.007,-0.0132 -0.0103,-0.01981 -0.0195,-0.008 -0.0388,-0.01595 -0.0585,-0.02412 -0.0291,-0.01209 -0.0558,-0.02555 -0.0791,-0.03617 -0.0254,-0.0087 -0.0436,-0.02373 -0.0673,-0.03359 -0.0323,-0.01483 -0.0642,-0.02974 -0.0937,-0.04651 -0.005,-0.0034 -0.0107,-0.0061 -0.0161,-0.0095 0,0.0012 -0.002,-10e-4 -0.003,-0.0017 -0.004,-0.0016 -0.007,-0.0034 -0.0103,-0.0052 -0.009,-0.0044 -0.0256,-0.01241 -0.0352,-0.01722 -0.0255,-0.01244 -0.0512,-0.02444 -0.0776,-0.03617 -0.0336,-0.01125 -0.0637,-0.02615 -0.0923,-0.04134 -0.0248,-0.01346 -0.0523,-0.02579 -0.0717,-0.0422 -0.0104,-0.0088 -0.0184,-0.01838 -0.0278,-0.02756 l -0.0234,-0.04995 c -0.006,-0.01362 0.004,-0.01186 0.003,-0.02153 -0.0142,-0.01761 -0.0265,-0.03784 -0.0352,-0.06115 -1.8e-4,-4.85e-4 -7.5e-4,-0.0017 0,-0.0017 -0.004,-0.0041 -0.01,-0.0082 -0.0103,-0.01292 -0.004,-0.02212 -0.003,-0.0407 -0.003,-0.06029 -0.48697,-0.220685 -0.61576,-0.718615 0.082,-1.316035 0.0467,-0.03998 0.0963,-0.08237 0.1479,-0.122301 -7.5e-4,-0.09133 -0.003,-0.182685 -0.006,-0.273887 -0.004,-0.15178 -0.0104,-0.30326 -0.0278,-0.454756 -0.0202,-0.150146 -0.0539,-0.298955 -0.10982,-0.446142 -0.0818,-0.24973 -0.14528,-0.501971 -0.21673,-0.752758 -0.0917,-0.379591 -0.17377,-0.762078 -0.13472,-1.146363 0.0257,-0.454462 0.0636,-0.9084599 0.10397,-1.3625442 0.0472,-0.5858213 0.0629,-1.1722678 0.0424,-1.7587324 -0.007,-0.3741444 -0.0124,-0.748303 -0.0352,-1.1222471 -0.0171,-0.2810251 0.0771,-0.4975923 0.20942,-0.6829945 0.005,-0.064068 0.0109,-0.1280028 0.0278,-0.1972332 0.17111,-0.7022122 0.21236,-1.4133541 0.26359,-2.1213311 0.0262,-0.4561853 0.0201,-0.9130412 -0.009,-1.3694343 -2.48492,-0.3663888 -4.30745,-2.40944812 -3.12351,-5.5431941 0.28983,-0.7671347 0.3997,-1.5509345 0.51107,-2.3323448 0.0274,-0.3416714 0.0714,-0.6852338 0.10836,-1.0283675 -0.18041,-0.9036787 -0.32339,-1.8097933 -0.43344,-2.7173363 -0.0124,-0.1024284 0.0163,-0.1819115 0.0278,-0.2713035 -0.52708,-1.439958 -1.16998,-2.863454 -1.69281,-4.303813 -0.47802,-1.651091 -1.03828,-3.297622 -1.39554,-4.960108 -0.10362,-0.482135 -0.18078,-0.966456 -0.2709,-1.449533 -0.5515,-3.170987 -0.95396,-6.349927 -1.41165,-9.52575 -0.51544,-3.028445 -1.4811,-6.02117 -2.2068,-9.033098 -0.55943,-2.249865 -0.7039,-4.526056 -1.15538,-6.782576 -0.2345,-1.170498 -0.40149,-1.674175 -0.7073,-2.662211 -1.585914,-0.643934 -2.775176,-1.9856 -2.703215,-4.060935 0.04866,-1.403654 -0.02497,-2.802687 -0.276765,-4.198735 -0.520382,-2.068362 -1.865144,-4.02615 -3.202573,-5.950579 -1.81779,-2.444161 -3.852109,-4.830308 -5.823779,-7.232162 -1.998653,-2.514158 -4.217495,-4.970746 -6.027338,-7.536198 -0.4498,-0.637553 -0.855253,-1.285632 -1.282779,-1.928401 -2.327159,-3.635474 -4.174354,-7.36513 -5.87504,-11.115676 -0.993621,-2.154803 -1.947017,-4.316709 -3.03417,-6.456148 -0.647654,-1.148586 -1.37392,-2.278734 -2.250729,-3.373637 -0.555014,-0.74712 -1.315949,-1.40903 -2.195082,-2.03348 -1.491009,-0.97135 -3.131999,-1.85803 -4.769443,-2.74231 -2.966835,-1.5761 -5.679046,-3.3065 -8.439144,-5.0049 -2.738002,-1.72931 -5.668879,-3.34771 -8.708591,-4.8912 -2.172064,-1.09956 -4.469525,-2.10785 -6.705334,-3.1609 -1.799316,-0.84755 -3.651654,-1.65384 -5.558733,-2.41502 -1.602452,-0.68128 -3.432253,-1.12235 -5.254144,-1.55375 -2.595512,-0.57715 -5.188301,-1.15959 -7.803606,-1.70534 -2.924384,-0.63397 -5.907744,-1.16813 -8.941428,-1.58647 -2.7531098,-0.35985 -5.5527871,-0.56442 -8.3600669,-0.70281 -3.13652751,-0.21221 -6.2873978,-0.31537 -9.4393028,-0.40738 -3.9414573,-0.10735 -7.8871663,-0.1625 -11.8320803,-0.20413 z M -113.56894,11.939249 c -0.099,0.0043 -0.19864,0.0177 -0.29434,0.0052 v 3.049791 c 0.0811,-0.06647 0.18965,-0.101911 0.3002,-0.105938 0.0294,-0.0011 0.0529,0.01991 0.082,0.02326 0.0494,-0.05596 0.11079,-0.107564 0.17426,-0.158476 0.0122,-0.0095 0.0236,-0.01951 0.0352,-0.02928 -0.16882,-0.05838 -0.29686,-0.179255 -0.2182,-0.391882 0.0289,-0.07801 0.0277,-0.159188 0.0337,-0.238575 0.001,-0.0868 0.002,-0.173439 0.006,-0.260106 -0.0533,5.29e-4 -0.1063,0.0055 -0.15961,0.0043 -0.15389,-0.0036 -0.14913,-0.08457 -0.003,-0.09216 -0.0179,-0.02705 0.0191,-0.0608 0.11422,-0.06373 0.021,-6.61e-4 0.042,-0.0011 0.063,-0.0017 0.005,-0.04109 0.0111,-0.08223 0.019,-0.123163 -0.0955,-0.06477 -0.16457,-0.162394 -0.17133,-0.301447 -0.003,-0.0698 -0.001,-0.03371 -0.004,-0.10766 -0.004,-0.121031 0.001,-0.242448 0.004,-0.36346 0.007,-0.172652 0.0156,-0.344922 0.0161,-0.517629 z m 227.4322,2.725088 c -0.0178,0.01031 -0.0363,0.01342 -0.0542,0.02325 0.019,0.01579 0.0376,0.03259 0.0542,0.05082 z" />
    </clipPath>
  </defs>
  <sodipodi:namedview
     id="namedview146"
     pagecolor="#ffffff"
     bordercolor="#000000"
     borderopacity="0.25"
     inkscape:showpageshadow="2"
     inkscape:pageopacity="0"
     inkscape:pagecheckerboard="0"
     inkscape:deskcolor="#d1d1d1"
     showgrid="false"
     inkscape:zoom="1.4142136"
     inkscape:cx="125.51145"
     inkscape:cy="190.21172"
     inkscape:window-width="1920"
     inkscape:window-height="991"
     inkscape:window-x="-9"
     inkscape:window-y="-9"
     inkscape:window-maximized="1"
     inkscape:current-layer="g1140" />
  <g
     id="g1140">
    <ellipse
       rx="113.363044"
       ry="130.641779"
       transform="matrix(1.333768 0 0 2.267702 150.00001 2.519092)"
       fill="none"
       stroke="#000"
       id="ellipse141"
       clip-path="url(#clipPath1682)"
       style="stroke-width:1.21700512;stroke-dasharray:none" />
    <ellipse
       style="fill:#2b0000;fill-opacity:0;stroke:#000000;stroke-width:2.20755;stroke-linecap:butt;stroke-linejoin:bevel;stroke-dasharray:none;stroke-dashoffset:0;stroke-opacity:1;paint-order:normal"
       id="path2651"
       cx="150.25"
       cy="43.25"
       rx="149.25363"
       ry="41.253632" />
    <path
       style="fill:#ffffff;fill-opacity:1;fill-rule:nonzero;stroke:none;stroke-width:1.13386;stroke-linejoin:bevel;stroke-dasharray:none;stroke-opacity:1"
       d="M 143.47704,300.46527 C 95.999819,299.59546 47.957612,299.77491 -0.34185437,300.43212 L 0.04419417,52.370096 c 0,0 -0.1361337,16.141955 7.12647243,55.142604 5.9968804,32.20362 17.9570844,75.09015 40.3254144,114.98524 22.368331,39.89509 46.006261,59.56811 64.589949,68.90498 15.6478,7.86181 31.39101,9.06235 31.39101,9.06235 z"
       id="path7854"
       sodipodi:nodetypes="cccsssc" />
    <path
       style="display:inline;fill:#ffffff;fill-opacity:1;fill-rule:nonzero;stroke:none;stroke-width:1.12634;stroke-linejoin:bevel;stroke-dasharray:none;stroke-opacity:1"
       d="m 158.74295,300.51928 c 46.84802,-0.86983 94.25357,-0.69037 141.91293,-0.0332 L 300.40754,51.49051 c 0,0 -0.75811,17.07675 -7.53961,56.00939 -6.51265,32.66838 -17.62497,75.737 -39.791,114.98778 -23.35931,41.3638 -47.76644,59.95514 -64.7496,68.68776 -17.58252,8.86079 -32.14688,9.2188 -32.14688,9.2188 z"
       id="path7854-5"
       sodipodi:nodetypes="ccccsccc" />
    <path
       style="fill:#ffffff;fill-opacity:1;fill-rule:nonzero;stroke:none;stroke-width:1.13386;stroke-linejoin:bevel;stroke-dasharray:none;stroke-opacity:1"
       d="m 300.125,0.125 v 38.721679 c 0,0 -0.63231,-13.781879 -45.18344,-26.68646 C 209.22178,-0.2229154 149.90664,0.30935921 149.90664,0.30935921 Z m -95.41759,-15.681349 z"
       id="path13125"
       sodipodi:nodetypes="ccccc" />
    <path
       style="fill:#ffffff;fill-opacity:1;fill-rule:nonzero;stroke:none;stroke-width:1.13783;stroke-linejoin:bevel;stroke-dasharray:none;stroke-opacity:1"
       d="M 0.17392911,0.12337396 V 38.845078 c 0,0 1.96256819,-14.488995 45.50024789,-26.686477 C 91.714525,-0.2245412 151.44556,0.30773343 151.44556,0.30773343 Z"
       id="path13125-9"
       sodipodi:nodetypes="ccccc" />
  </g>
</svg>
