<?xml version="1.0" encoding="UTF-8" standalone="no"?>
<!-- Created with Inkscape (http://www.inkscape.org/) -->

<svg
   width="210mm"
   height="297mm"
   viewBox="0 0 210 297"
   version="1.1"
   id="svg5"
   inkscape:version="1.1.2 (b8e25be833, 2022-02-05)"
   sodipodi:docname="wheel.svg"
   xmlns:inkscape="http://www.inkscape.org/namespaces/inkscape"
   xmlns:sodipodi="http://sodipodi.sourceforge.net/DTD/sodipodi-0.dtd"
   xmlns="http://www.w3.org/2000/svg"
   xmlns:svg="http://www.w3.org/2000/svg">
  <sodipodi:namedview
     id="namedview7"
     pagecolor="#ffffff"
     bordercolor="#666666"
     borderopacity="1.0"
     inkscape:pageshadow="2"
     inkscape:pageopacity="0.0"
     inkscape:pagecheckerboard="0"
     inkscape:document-units="mm"
     showgrid="false"
     inkscape:zoom="0.70710678"
     inkscape:cx="-82.731494"
     inkscape:cy="943.28045"
     inkscape:window-width="1920"
     inkscape:window-height="1017"
     inkscape:window-x="-8"
     inkscape:window-y="-8"
     inkscape:window-maximized="1"
     inkscape:current-layer="layer1"
     inkscape:snap-global="true"
     inkscape:snap-center="false"
     inkscape:snap-object-midpoints="false" />
  <defs
     id="defs2">
    <linearGradient
       id="linearGradient15501"
       inkscape:swatch="solid">
      <stop
         style="stop-color:#000000;stop-opacity:1;"
         offset="0"
         id="stop15499" />
    </linearGradient>
    <linearGradient
       id="linearGradient3790"
       inkscape:swatch="solid">
      <stop
         style="stop-color:#760041;stop-opacity:1;"
         offset="0"
         id="stop3788" />
    </linearGradient>
  </defs>
  <g
     inkscape:label="Layer 1"
     inkscape:groupmode="layer"
     id="layer1">
    <path
       id="path2916"
       style="fill:#000000;fill-rule:evenodd;stroke:none;stroke-width:0.438425;stroke-linecap:square;stroke-linejoin:round;paint-order:markers stroke fill"
       d="m 151.06415,33.460667 a 25.449376,23.693035 0 0 0 -25.72194,19.90989 25.449376,23.693035 0 0 0 21.06692,27.16682 25.449376,23.693035 0 0 0 29.18117,-19.61327 25.449376,23.693035 0 0 0 -21.06745,-27.16682 25.449376,23.693035 0 0 0 -3.4587,-0.29662 z m -1.98644,3.71812 -0.25528,16.56953 -15.45901,-9.29194 a 22.555302,20.028097 0 0 1 15.71429,-7.27759 z m 3.29747,0.1173 a 22.555302,20.028097 0 0 1 1.86242,0.0791 22.555302,20.028097 0 0 1 13.76867,7.01094 l -15.5174,9.35292 z m 17.74672,9.77253 a 22.555302,20.028097 0 0 1 2.78691,13.27154 22.555302,20.028097 0 0 1 -2.86908,6.79442 l -15.73185,-9.99629 z m -38.87825,0.092 15.73186,9.99629 -15.79387,10.05675 a 22.555302,20.028097 0 0 1 -2.80654,-13.25914 22.555302,20.028097 0 0 1 2.86855,-6.7939 z m 19.23707,8.59224 a 1.39425,1.39425 0 0 1 0.20774,0.0181 1.39425,1.39425 0 0 1 1.15445,1.59836 1.39425,1.39425 0 0 1 -1.59887,1.15445 1.39425,1.39425 0 0 1 -1.15445,-1.59887 1.39425,1.39425 0 0 1 1.39113,-1.17202 z m 1.98024,4.7935 15.45952,9.29194 a 22.555302,20.028097 0 0 1 -15.7148,7.2776 z m -3.66644,0.009 0.11369,16.44344 a 22.555302,20.028097 0 0 1 -1.8619,-0.0796 22.555302,20.028097 0 0 1 -13.70511,-7.0497 z" />
    <path
       id="path4243"
       style="fill:#000000;fill-rule:evenodd;stroke:none;stroke-width:0.438425;stroke-linecap:square;stroke-linejoin:round;paint-order:markers stroke fill"
       d="M 47.476711,21.632634 A 39.999999,39.999999 0 0 0 7.2967313,55.250223 39.999999,39.999999 0 0 0 40.408921,101.11512 39.999999,39.999999 0 0 0 86.273821,68.002933 39.999999,39.999999 0 0 0 53.161631,22.138029 39.999999,39.999999 0 0 0 47.476711,21.632634 Z m 1.80867,5.091679 a 34.999998,34.999998 0 0 1 3.07888,0.349849 34.999998,34.999998 0 0 1 16.33596,7.26984 l -17.92036,19.363161 a 8.8871421,8.8871421 0 0 0 -1.49448,-0.58188 z m -5.00021,0.09612 v 26.32604 a 8.8871421,8.8871421 0 0 0 -2.02003,0.89349 L 22.913351,36.12994 a 34.999998,34.999998 0 0 1 21.37182,-9.309509 z m 28.07529,10.929565 a 34.999998,34.999998 0 0 1 9.32398,21.376475 h -26.34568 a 8.8871421,8.8871421 0 0 0 -0.88935,-2.02365 z m -52.83037,2.060856 19.33526,17.895029 a 8.8871421,8.8871421 0 0 0 -0.55553,1.42059 h -26.32862 a 34.999998,34.999998 0 0 1 0.25166,-3.0794 34.999998,34.999998 0 0 1 7.29723,-16.236219 z m 27.32547,18.659329 a 3.1936084,3.1936086 0 0 1 0.47542,0.0403 3.1936084,3.1936086 0 0 1 2.64376,3.66231 3.1936084,3.1936086 0 0 1 -3.66179,2.64325 3.1936084,3.1936086 0 0 1 -2.64376,-3.66179 3.1936084,3.1936086 0 0 1 3.18637,-2.68407 z m -34.87281,5.6565 h 26.30278 a 8.8871421,8.8871421 0 0 0 0.91261,2.09341 l -17.88108,19.32078 a 34.999998,34.999998 0 0 1 -9.33431,-21.41419 z m 43.37254,0 h 26.33018 a 34.999998,34.999998 0 0 1 -0.34778,3.0794 34.999998,34.999998 0 0 1 -7.29775,16.24086 l -19.26135,-17.82578 a 8.8871421,8.8871421 0 0 0 0.5767,-1.49448 z m -3.9765,5.16041 19.27945,17.84283 a 34.999998,34.999998 0 0 1 -21.37286,9.29918 v -26.22941 a 8.8871421,8.8871421 0 0 0 2.09341,-0.9126 z m -8.5142,0.33331 a 8.8871421,8.8871421 0 0 0 1.42058,0.55552 v 26.25473 a 34.999998,34.999998 0 0 1 -3.0794,-0.25167 34.999998,34.999998 0 0 1 -16.19953,-7.2626 z" />
    <path
       id="path2497"
       style="fill:#000000;fill-rule:evenodd;stroke-width:1.65704;stroke-linecap:square;stroke-linejoin:round;paint-order:markers stroke fill"
       inkscape:transform-center-x="-0.74835468"
       inkscape:transform-center-y="2.0579754"
       d="M 292.7832 567.10938 A 188.97638 188.97638 0 0 0 104.24023 725.95117 A 188.97638 188.97638 0 0 0 260.67578 942.63672 A 188.97638 188.97638 0 0 0 477.35938 786.20117 A 188.97638 188.97638 0 0 0 320.92383 569.51562 A 188.97638 188.97638 0 0 0 292.7832 567.10938 z M 309.15039 625.25 A 132.28346 132.28346 0 0 1 311.88672 625.48438 A 132.28346 132.28346 0 0 1 370.67773 650.69922 L 323.52734 697.66992 A 66.956637 66.956637 0 0 0 309.15039 691.68945 L 309.15039 625.25 z M 271.35352 625.43555 L 271.35352 692.01953 A 66.956637 66.956637 0 0 0 257.60547 697.94336 L 210.96875 651.12695 A 132.28346 132.28346 0 0 1 271.35352 625.43555 z M 397.22852 677.59766 A 132.28346 132.28346 0 0 1 421.91797 738.5918 L 355.42773 738.5918 A 66.956637 66.956637 0 0 0 349.94531 724.69727 L 397.22852 677.59766 z M 184.50781 678.11719 L 231.42188 725.21094 A 66.956637 66.956637 0 0 0 226.21289 738.5918 L 159.94336 738.5918 A 132.28346 132.28346 0 0 1 160.20703 734.98828 A 132.28346 132.28346 0 0 1 184.50781 678.11719 z M 290.99805 737.17969 A 18.897638 18.897638 0 0 1 293.8125 737.41992 A 18.897638 18.897638 0 0 1 309.45508 759.08789 A 18.897638 18.897638 0 0 1 287.78711 774.73242 A 18.897638 18.897638 0 0 1 272.14453 753.06445 A 18.897638 18.897638 0 0 1 290.99805 737.17969 z M 160.4082 776.38867 L 227.03711 776.38867 A 66.956637 66.956637 0 0 0 232.27344 788.57422 L 185.42188 835.24609 A 132.28346 132.28346 0 0 1 160.4082 776.38867 z M 354.5957 776.38867 L 421.49414 776.38867 A 132.28346 132.28346 0 0 1 421.39258 777.16406 A 132.28346 132.28346 0 0 1 395.54297 836.41016 L 348.79883 789.48438 A 66.956637 66.956637 0 0 0 354.5957 776.38867 z M 259.22852 815.07031 A 66.956637 66.956637 0 0 0 271.35352 820.11523 L 271.35352 886.78711 A 132.28346 132.28346 0 0 1 269.71289 886.66797 A 132.28346 132.28346 0 0 1 212.1543 861.96289 L 259.22852 815.07031 z M 321.42969 815.5625 L 368.32617 862.64062 A 132.28346 132.28346 0 0 1 309.15039 886.66797 L 309.15039 820.44531 A 66.956637 66.956637 0 0 0 321.42969 815.5625 z "
       transform="scale(0.26458333)" />
  </g>
</svg>
