<?xml version="1.0" encoding="UTF-8" standalone="no"?>
<!-- Created with Inkscape (http://www.inkscape.org/) -->

<svg
   width="210mm"
   height="297mm"
   viewBox="0 0 210 297"
   version="1.1"
   id="svg6814"
   inkscape:version="1.1.2 (b8e25be833, 2022-02-05)"
   sodipodi:docname="wheel_cast.svg"
   xmlns:inkscape="http://www.inkscape.org/namespaces/inkscape"
   xmlns:sodipodi="http://sodipodi.sourceforge.net/DTD/sodipodi-0.dtd"
   xmlns="http://www.w3.org/2000/svg"
   xmlns:svg="http://www.w3.org/2000/svg">
  <sodipodi:namedview
     id="namedview6816"
     pagecolor="#ffffff"
     bordercolor="#666666"
     borderopacity="1.0"
     inkscape:pageshadow="2"
     inkscape:pageopacity="0.0"
     inkscape:pagecheckerboard="0"
     inkscape:document-units="mm"
     showgrid="false"
     inkscape:snap-global="false"
     inkscape:zoom="0.5234703"
     inkscape:cx="-88.830254"
     inkscape:cy="1056.4114"
     inkscape:window-width="1920"
     inkscape:window-height="1017"
     inkscape:window-x="-8"
     inkscape:window-y="-8"
     inkscape:window-maximized="1"
     inkscape:current-layer="layer1-7" />
  <defs
     id="defs6811">
    <linearGradient
       id="linearGradient15501"
       inkscape:swatch="solid">
      <stop
         style="stop-color:#000000;stop-opacity:1;"
         offset="0"
         id="stop15499" />
    </linearGradient>
    <linearGradient
       id="linearGradient3790"
       inkscape:swatch="solid">
      <stop
         style="stop-color:#760041;stop-opacity:1;"
         offset="0"
         id="stop3788" />
    </linearGradient>
  </defs>
  <g
     inkscape:label="Layer 1"
     inkscape:groupmode="layer"
     id="layer1">
    <g
       inkscape:label="Layer 1"
       id="layer1-7"
       transform="translate(-16.296315,44.521376)">
      <path
         id="rect10089"
         style="vector-effect:none;fill-rule:evenodd;stroke-width:0.0753592;stop-color:#000000"
         d="m 111.94119,67.966074 c 1.17271,0.77048 2.3848,3.770186 2.3848,3.770186 0,0 -3.32959,0.173899 -4.5023,-0.596565 -1.17271,-0.77048 -1.92126,-1.841883 -1.15078,-3.014593 0.77047,-1.172694 2.09558,-0.929492 3.26828,-0.159028 z"
         sodipodi:nodetypes="scsss" />
      <path
         id="rect10089-4"
         style="vector-effect:none;fill-rule:evenodd;stroke-width:0.059543;stop-color:#000000"
         d="m 115.2957,62.679771 c 0.30899,1.06475 -0.50256,3.48883 -0.50256,3.48883 0,0 -2.08936,-1.60452 -2.39836,-2.66926 -0.30898,-1.06474 -0.20873,-2.09256 0.85602,-2.40155 1.06474,-0.30898 1.73591,0.51725 2.0449,1.58198 z"
         sodipodi:nodetypes="scsss" />
      <path
         id="rect10089-4-7"
         style="vector-effect:none;fill-rule:evenodd;stroke-width:0.093036;stop-color:#000000"
         d="m 133.5157,69.114731 c -1.19205,1.25695 -5.99435,2.65727 -5.99435,2.65727 0,0 1.49669,-5.06784 2.68872,-6.32479 1.19205,-1.25693 3.50561,-2.33588 4.76255,-1.14383 1.25692,1.19204 -0.2649,3.55441 -1.45692,4.81135 z"
         sodipodi:nodetypes="scsss" />
      <path
         id="path3497-0-0"
         style="fill:#000000;fill-opacity:1;fill-rule:evenodd;stroke:#000000;stroke-width:0.520394;stroke-linecap:square;stroke-linejoin:round;stroke-miterlimit:4;stroke-dasharray:none;stroke-opacity:1;paint-order:markers stroke fill"
         d="m 119.02044,55.722448 -0.30756,9.983655 c -0.80441,0.863144 -2.09726,4.536551 -2.08658,5.709698 0.0241,2.542153 2.12373,4.58703 4.69747,4.575067 2.57372,-0.01191 4.65371,-2.076217 4.65369,-4.61845 l -8.1e-4,-0.08652 c -0.0223,-1.127391 -1.3128,-4.681128 -2.086,-5.510722 L 123.4717,55.722785 Z"
         sodipodi:nodetypes="cccsccccc" />
      <path
         id="path4243"
         style="fill:#000000;fill-rule:evenodd;stroke:none;stroke-width:0.438425;stroke-linecap:square;stroke-linejoin:round;paint-order:markers stroke fill"
         d="m 115.78399,72.884447 a 39.999999,39.999999 0 0 0 -33.97622,33.234153 39.999999,39.999999 0 0 0 33.11219,45.8649 39.999999,39.999999 0 0 0 45.8649,-33.11219 39.999999,39.999999 0 0 0 -33.11219,-45.864906 39.999999,39.999999 0 0 0 -0.86765,-0.108521 c -0.73182,2.305923 -2.90606,3.982159 -5.48132,3.994073 -2.59921,0.01208 -4.80601,-1.675146 -5.53971,-4.007509 z m 8.01243,4.70824 a 34.999998,34.999998 0 0 1 3.07888,0.34985 34.999998,34.999998 0 0 1 16.33596,7.26984 L 125.2909,104.57554 a 8.8871419,8.8871419 0 0 0 -1.49448,-0.58188 z m -5.00021,0.09612 v 26.326043 a 8.8871419,8.8871419 0 0 0 -2.02003,0.89348 L 97.424388,86.998314 a 34.999998,34.999998 0 0 1 21.371822,-9.309507 z m 28.07529,10.929564 a 34.999998,34.999998 0 0 1 9.32398,21.376469 H 129.8498 a 8.8871419,8.8871419 0 0 0 -0.88935,-2.02364 z m -52.830368,2.060856 19.335248,17.895033 a 8.8871419,8.8871419 0 0 0 -0.55552,1.42058 H 86.492239 a 34.999998,34.999998 0 0 1 0.251664,-3.07939 34.999998,34.999998 0 0 1 7.297229,-16.236223 z m 27.325458,18.659323 a 3.1936084,3.1936086 0 0 1 0.47543,0.0403 3.1936084,3.1936086 0 0 1 2.64376,3.66231 3.1936084,3.1936086 0 0 1 -3.66179,2.64325 3.1936084,3.1936086 0 0 1 -2.64376,-3.66179 3.1936084,3.1936086 0 0 1 3.18636,-2.68407 z m -34.872801,5.65651 h 26.302791 a 8.8871419,8.8871419 0 0 0 0.9126,2.09341 l -17.881078,19.32078 a 34.999998,34.999998 0 0 1 -9.334313,-21.41419 z m 43.372541,0 h 26.33018 a 34.999998,34.999998 0 0 1 -0.34778,3.0794 34.999998,34.999998 0 0 1 -7.29775,16.24087 l -19.26136,-17.82579 a 8.8871419,8.8871419 0 0 0 0.57671,-1.49448 z m -3.9765,5.1604 19.27945,17.84284 a 34.999998,34.999998 0 0 1 -21.37286,9.29918 v -26.22941 a 8.8871419,8.8871419 0 0 0 2.09341,-0.91261 z m -8.5142,0.33332 a 8.8871419,8.8871419 0 0 0 1.42058,0.55552 v 26.25473 a 34.999998,34.999998 0 0 1 -3.0794,-0.25167 34.999998,34.999998 0 0 1 -16.199528,-7.2626 z" />
      <path
         id="path2497"
         style="fill:#000000;fill-rule:evenodd;stroke-width:0.828522;stroke-linecap:square;stroke-linejoin:round;paint-order:markers stroke fill"
         inkscape:transform-center-x="-0.37417685"
         inkscape:transform-center-y="1.0289871"
         d="M 590.70312 882.20898 A 94.488189 94.488189 0 0 0 526.31055 957.05273 A 94.488189 94.488189 0 0 0 604.5293 1065.3965 A 94.488189 94.488189 0 0 0 712.87109 987.17773 A 94.488189 94.488189 0 0 0 649.10156 882.35742 C 644.43943 893.68465 633.21829 901.69287 620.08008 901.75391 C 606.78005 901.81569 595.36803 893.71505 590.70312 882.20898 z M 628.76562 906.70312 A 66.141729 66.141729 0 0 1 630.13477 906.82031 A 66.141729 66.141729 0 0 1 659.5293 919.42773 L 635.95312 942.91211 A 33.478318 33.478318 0 0 0 628.76562 939.92188 L 628.76562 906.70312 z M 609.86719 906.79492 L 609.86719 940.08789 A 33.478318 33.478318 0 0 0 602.99414 943.04883 L 579.67578 919.64062 A 66.141729 66.141729 0 0 1 609.86719 906.79492 z M 672.80469 932.87695 A 66.141729 66.141729 0 0 1 685.14844 963.37305 L 651.9043 963.37305 A 33.478318 33.478318 0 0 0 649.16406 956.42578 L 672.80469 932.87695 z M 566.44531 933.13477 L 589.90234 956.68359 A 33.478318 33.478318 0 0 0 587.29688 963.37305 L 554.16211 963.37305 A 66.141729 66.141729 0 0 1 554.29492 961.57031 A 66.141729 66.141729 0 0 1 566.44531 933.13477 z M 619.68945 962.66602 A 9.4488189 9.4488189 0 0 1 621.09766 962.78711 A 9.4488189 9.4488189 0 0 1 628.91797 973.62109 A 9.4488189 9.4488189 0 0 1 618.08398 981.44336 A 9.4488189 9.4488189 0 0 1 610.26367 970.60938 A 9.4488189 9.4488189 0 0 1 619.68945 962.66797 L 619.68945 962.66602 z M 554.39453 982.27148 L 587.70898 982.27148 A 33.478318 33.478318 0 0 0 590.32812 988.36328 L 566.90234 1011.6992 A 66.141729 66.141729 0 0 1 554.39453 982.27148 z M 651.48828 982.27148 L 684.9375 982.27148 A 66.141729 66.141729 0 0 1 684.88672 982.6582 A 66.141729 66.141729 0 0 1 671.96094 1012.2832 L 648.58984 988.82031 A 33.478318 33.478318 0 0 0 651.48828 982.27148 z M 603.80469 1001.6113 A 33.478318 33.478318 0 0 0 609.86719 1004.1348 L 609.86719 1037.4707 A 66.141729 66.141729 0 0 1 609.04688 1037.4121 A 66.141729 66.141729 0 0 1 580.26758 1025.0586 L 603.80469 1001.6113 z M 634.90625 1001.8574 L 658.35352 1025.3965 A 66.141729 66.141729 0 0 1 628.76562 1037.4102 L 628.76562 1004.2988 A 33.478318 33.478318 0 0 0 634.90625 1001.8574 z "
         transform="matrix(0.26458333,0,0,0.26458333,16.296315,-44.521376)" />
      <path
         id="rect10089-2"
         style="vector-effect:none;fill-rule:evenodd;stroke-width:0.093036;stop-color:#000000"
         d="m 168.19344,182.1507 c 1.44779,0.95121 2.9442,4.65455 2.9442,4.65455 0,0 -4.11061,0.21469 -5.55839,-0.7365 -1.44779,-0.95121 -2.37193,-2.27393 -1.42073,-3.72172 0.95121,-1.44777 2.58715,-1.14752 4.03492,-0.19633 z"
         sodipodi:nodetypes="scsss" />
      <path
         id="rect10089-4-75"
         style="vector-effect:none;fill-rule:evenodd;stroke-width:0.059543;stop-color:#000000"
         d="m 172.18426,176.52377 c 0.30899,1.06475 -0.50256,3.48883 -0.50256,3.48883 0,0 -2.08936,-1.60452 -2.39835,-2.66926 -0.30899,-1.06474 -0.20873,-2.09256 0.85602,-2.40155 1.06473,-0.30898 1.7359,0.51725 2.04489,1.58198 z"
         sodipodi:nodetypes="scsss" />
      <path
         id="rect10089-4-7-9"
         style="vector-effect:none;fill-rule:evenodd;stroke-width:0.093036;stop-color:#000000"
         d="m 195.83775,184.09597 c -1.19205,1.25695 -5.99435,2.65727 -5.99435,2.65727 0,0 1.49669,-5.06784 2.68872,-6.32479 1.19205,-1.25693 3.50561,-2.33588 4.76254,-1.14383 1.25693,1.19204 -0.2649,3.55441 -1.45691,4.81135 z"
         sodipodi:nodetypes="scsss" />
      <path
         id="path3497-0-4"
         style="fill:#000000;fill-opacity:1;fill-rule:evenodd;stroke:#000000;stroke-width:0.675836;stroke-linecap:square;stroke-linejoin:round;stroke-miterlimit:4;stroke-dasharray:none;stroke-opacity:1;paint-order:markers stroke fill"
         d="m 177.53228,165.9749 -0.39941,12.96578 c -1.0447,1.12098 -2.72375,5.89163 -2.70986,7.41519 0.0313,3.30151 2.75809,5.95718 6.10061,5.94166 3.3425,-0.0156 6.04378,-2.69639 6.04375,-5.998 l -0.002,-0.11236 c -0.0291,-1.46413 -1.70494,-6.07937 -2.7091,-7.15676 l -0.5441,-13.05506 z"
         sodipodi:nodetypes="cccsccccc" />
    </g>
  </g>
</svg>
