<?xml version="1.0" encoding="UTF-8" standalone="no"?>
<!-- Created with Inkscape (http://www.inkscape.org/) -->

<svg
   width="210mm"
   height="297mm"
   viewBox="0 0 210 297"
   version="1.1"
   id="svg5"
   inkscape:version="1.1.2 (b8e25be833, 2022-02-05)"
   sodipodi:docname="wheel_printed.svg"
   xmlns:inkscape="http://www.inkscape.org/namespaces/inkscape"
   xmlns:sodipodi="http://sodipodi.sourceforge.net/DTD/sodipodi-0.dtd"
   xmlns="http://www.w3.org/2000/svg"
   xmlns:svg="http://www.w3.org/2000/svg">
  <sodipodi:namedview
     id="namedview7"
     pagecolor="#ffffff"
     bordercolor="#666666"
     borderopacity="1.0"
     inkscape:pageshadow="2"
     inkscape:pageopacity="0.0"
     inkscape:pagecheckerboard="0"
     inkscape:document-units="mm"
     showgrid="false"
     inkscape:zoom="0.70710678"
     inkscape:cx="361.33157"
     inkscape:cy="854.185"
     inkscape:window-width="1920"
     inkscape:window-height="1017"
     inkscape:window-x="-8"
     inkscape:window-y="-8"
     inkscape:window-maximized="1"
     inkscape:current-layer="layer1"
     inkscape:snap-global="false"
     inkscape:snap-center="false"
     inkscape:snap-object-midpoints="false" />
  <defs
     id="defs2">
    <linearGradient
       id="linearGradient15501"
       inkscape:swatch="solid">
      <stop
         style="stop-color:#000000;stop-opacity:1;"
         offset="0"
         id="stop15499" />
    </linearGradient>
    <linearGradient
       id="linearGradient3790"
       inkscape:swatch="solid">
      <stop
         style="stop-color:#760041;stop-opacity:1;"
         offset="0"
         id="stop3788" />
    </linearGradient>
  </defs>
  <g
     inkscape:label="Layer 1"
     inkscape:groupmode="layer"
     id="layer1">
    <path
       id="path4243"
       style="fill:#000000;fill-rule:evenodd;stroke:none;stroke-width:0.280592;stroke-linecap:square;stroke-linejoin:round;paint-order:markers stroke fill"
       d="m 95.087431,125.48346 a 25.599999,25.599999 0 0 0 -15.360386,19.50277 25.599999,25.599999 0 0 0 21.191805,29.35352 25.599999,25.599999 0 0 0 29.35354,-21.1918 25.599999,25.599999 0 0 0 -15.31839,-27.66449 z m 11.512349,1.24618 a 22.399999,22.399999 0 0 1 1.97049,0.22391 22.399999,22.399999 0 0 1 10.45501,4.65269 l -11.46903,12.39243 a 5.6877708,5.6877708 0 0 0 -0.95647,-0.3724 z m -3.20014,0.0615 v 16.84867 a 5.6877708,5.6877708 0 0 0 -1.29281,0.57184 L 89.721681,132.74924 a 22.399999,22.399999 0 0 1 13.677959,-5.95809 z m 17.96819,6.99493 a 22.399999,22.399999 0 0 1 5.96735,13.68094 h -16.86124 a 5.6877708,5.6877708 0 0 0 -0.56918,-1.29513 z m -33.811433,1.31894 12.374563,11.45283 a 5.6877708,5.6877708 0 0 0 -0.355534,0.90917 H 82.725105 a 22.399999,22.399999 0 0 1 0.161065,-1.97081 22.399999,22.399999 0 0 1 4.670227,-10.39119 z M 105.04469,147.047 a 2.0439094,2.0439095 0 0 1 0.30427,0.0258 2.0439094,2.0439095 0 0 1 1.69201,2.34388 2.0439094,2.0439095 0 0 1 -2.34354,1.69167 2.0439094,2.0439095 0 0 1 -1.69201,-2.34354 2.0439094,2.0439095 0 0 1 2.03927,-1.71781 z m -22.318593,3.62016 h 16.833784 a 5.6877708,5.6877708 0 0 0 0.584069,1.33979 l -11.443891,12.3653 a 22.399999,22.399999 0 0 1 -5.973962,-13.70509 z m 27.758423,0 h 16.85132 a 22.399999,22.399999 0 0 1 -0.22258,1.97082 22.399999,22.399999 0 0 1 -4.67056,10.39416 l -12.32726,-11.40851 a 5.6877708,5.6877708 0 0 0 0.36908,-0.95648 z m -2.54496,3.30267 12.33885,11.41941 a 22.399999,22.399999 0 0 1 -13.67863,5.95147 V 154.5539 a 5.6877708,5.6877708 0 0 0 1.33978,-0.58407 z m -5.44908,0.21332 a 5.6877708,5.6877708 0 0 0 0.90916,0.35553 v 16.80303 a 22.399999,22.399999 0 0 1 -1.9708,-0.16107 22.399999,22.399999 0 0 1 -10.367706,-4.64807 z" />
    <rect
       style="font-variation-settings:normal;fill:#000000;fill-opacity:1;fill-rule:evenodd;stroke-width:0.0646075;stroke-linecap:butt;stroke-linejoin:miter;stroke-miterlimit:4;stroke-dasharray:none;stroke-dashoffset:0;stroke-opacity:1;stop-color:#000000"
       id="rect20515-9-5-3-3-6-7"
       width="10"
       height="2"
       x="-114.99958"
       y="-122.67159"
       ry="1"
       transform="scale(-1)"
       inkscape:export-filename="C:\Users\MM3D\Desktop\Web_Icons\printer.png"
       inkscape:export-xdpi="122.32"
       inkscape:export-ydpi="122.32" />
    <rect
       style="font-variation-settings:normal;vector-effect:none;fill:#000000;fill-opacity:1;fill-rule:evenodd;stroke-width:0.116593;stroke-linecap:butt;stroke-linejoin:miter;stroke-miterlimit:4;stroke-dasharray:none;stroke-dashoffset:0;stroke-opacity:1;-inkscape-stroke:none;stop-color:#000000"
       id="rect3000-4-3"
       width="2"
       height="6"
       x="104.99615"
       y="116.56905"
       ry="0.88021988"
       inkscape:export-filename="C:\Users\MM3D\Desktop\Web_Icons\printer.png"
       inkscape:export-xdpi="122.32"
       inkscape:export-ydpi="122.32" />
    <rect
       style="font-variation-settings:normal;fill:#000000;fill-opacity:1;fill-rule:evenodd;stroke-width:0.0913687;stroke-linecap:butt;stroke-linejoin:miter;stroke-miterlimit:4;stroke-dasharray:none;stroke-dashoffset:0;stroke-opacity:1;stop-color:#000000"
       id="rect20515-9-5-3-3-6-7-8"
       width="20"
       height="2"
       x="-114.99958"
       y="123.2385"
       ry="1"
       transform="scale(-1,1)"
       inkscape:export-filename="C:\Users\MM3D\Desktop\Web_Icons\printer.png"
       inkscape:export-xdpi="122.32"
       inkscape:export-ydpi="122.32" />
    <path
       id="path2497"
       style="fill:#000000;fill-rule:evenodd;stroke-width:0.848406;stroke-linecap:square;stroke-linejoin:round;paint-order:markers stroke fill"
       inkscape:transform-center-x="-0.38315822"
       inkscape:transform-center-y="1.0536826"
       d="M 529.19922 822.37891 A 96.755906 96.755906 0 0 0 489.01953 886.25586 A 96.755906 96.755906 0 0 0 569.11523 997.19922 A 96.755906 96.755906 0 0 0 680.05664 917.10352 A 96.755906 96.755906 0 0 0 639.96094 822.37891 L 529.19922 822.37891 z M 593.93359 834.69727 A 67.729126 67.729126 0 0 1 595.33398 834.81836 A 67.729126 67.729126 0 0 1 625.43555 847.72656 L 601.29492 871.77734 A 34.281797 34.281797 0 0 0 593.93359 868.71484 L 593.93359 834.69727 z M 574.58203 834.79297 L 574.58203 868.88281 A 34.281797 34.281797 0 0 0 567.54297 871.91602 L 543.66406 847.94531 A 67.729126 67.729126 0 0 1 574.58203 834.79297 z M 639.0293 861.5 A 67.729126 67.729126 0 0 1 651.66992 892.72852 L 617.62695 892.72852 A 34.281797 34.281797 0 0 0 614.82031 885.61328 L 639.0293 861.5 z M 530.11719 861.76562 L 554.13672 885.87695 A 34.281797 34.281797 0 0 0 551.46875 892.72852 L 517.53906 892.72852 A 67.729126 67.729126 0 0 1 517.67383 890.88281 A 67.729126 67.729126 0 0 1 530.11719 861.76562 z M 584.64062 892.00586 A 9.6755906 9.6755906 0 0 1 586.08008 892.12891 A 9.6755906 9.6755906 0 0 1 594.08984 903.22266 A 9.6755906 9.6755906 0 0 1 582.99609 911.23242 A 9.6755906 9.6755906 0 0 1 574.98633 900.13867 A 9.6755906 9.6755906 0 0 1 584.64062 892.00586 z M 517.77734 912.08008 L 551.89258 912.08008 A 34.281797 34.281797 0 0 0 554.57227 918.31836 L 530.58398 942.21484 A 67.729126 67.729126 0 0 1 517.77734 912.08008 z M 617.20117 912.08008 L 651.45312 912.08008 A 67.729126 67.729126 0 0 1 651.40234 912.47656 A 67.729126 67.729126 0 0 1 638.16602 942.81055 L 614.23438 918.78516 A 34.281797 34.281797 0 0 0 617.20117 912.08008 z M 568.37305 931.88477 A 34.281797 34.281797 0 0 0 574.58203 934.46875 L 574.58203 968.60352 A 67.729126 67.729126 0 0 1 573.74219 968.54297 A 67.729126 67.729126 0 0 1 544.27148 955.89453 L 568.37305 931.88477 z M 600.2207 932.13672 L 624.23242 956.24023 A 67.729126 67.729126 0 0 1 593.93359 968.54297 L 593.93359 934.63672 A 34.281797 34.281797 0 0 0 600.2207 932.13672 z "
       transform="scale(0.26458333)" />
    <rect
       style="font-variation-settings:normal;fill:#000000;fill-opacity:1;fill-rule:evenodd;stroke-width:0.125111;stroke-linecap:butt;stroke-linejoin:miter;stroke-miterlimit:4;stroke-dasharray:none;stroke-dashoffset:0;stroke-opacity:1;stop-color:#000000"
       id="rect20515-9-5-3-3-6-7-1"
       width="15"
       height="5"
       x="-169.47801"
       y="-209.33005"
       ry="2.5"
       transform="scale(-1)"
       inkscape:export-filename="C:\Users\MM3D\Desktop\Web_Icons\printer_dash.png"
       inkscape:export-xdpi="122.32"
       inkscape:export-ydpi="122.32" />
    <rect
       style="font-variation-settings:normal;vector-effect:none;fill:#000000;fill-opacity:1;fill-rule:evenodd;stroke-width:0.283979;stroke-linecap:butt;stroke-linejoin:miter;stroke-miterlimit:4;stroke-dasharray:none;stroke-dashoffset:0;stroke-opacity:1;-inkscape-stroke:none;stop-color:#000000"
       id="rect3000-4-3-4"
       width="4.8895235"
       height="14.559332"
       x="154.40871"
       y="193.98174"
       ry="2.1359022"
       inkscape:export-filename="C:\Users\MM3D\Desktop\Web_Icons\printer_dash.png"
       inkscape:export-xdpi="122.32"
       inkscape:export-ydpi="122.32" />
    <rect
       style="font-variation-settings:normal;fill:#000000;fill-opacity:1;fill-rule:evenodd;stroke-width:0.17918;stroke-linecap:butt;stroke-linejoin:miter;stroke-miterlimit:4;stroke-dasharray:none;stroke-dashoffset:0;stroke-opacity:1;stop-color:#000000"
       id="rect20515-9-5-3-3-6-7-8-1"
       width="30.765989"
       height="5"
       x="-170.18269"
       y="-215.78479"
       ry="2.5"
       transform="scale(-1)"
       inkscape:export-filename="C:\Users\MM3D\Desktop\Web_Icons\printer_dash.png"
       inkscape:export-xdpi="122.32"
       inkscape:export-ydpi="122.32" />
  </g>
</svg>
