<svg width="20" height="17" viewBox="0 0 20 17" fill="none" xmlns="http://www.w3.org/2000/svg">
<path d="M11.6341 13.3302L8.16997 15.3302C6.97197 16.0218 5.70703 16.1892 4.37516 15.8324C3.04328 15.4755 2.03151 14.6981 1.33984 13.5C0.648177 12.302 0.480781 11.0371 0.837656 9.70523C1.19453 8.37336 1.97197 7.36159 3.16997 6.66992L6.63407 4.66992L7.63407 6.40197L4.16997 8.40197C3.44828 8.81864 2.98068 9.4254 2.76717 10.2222C2.55365 11.0191 2.65523 11.7784 3.07189 12.5C3.48856 13.2217 4.09532 13.6893 4.89217 13.9029C5.68902 14.1164 6.44828 14.0148 7.16997 13.5981L10.6341 11.5981L11.6341 13.3302ZM7.036 11.3661L6.036 9.63402L12.9642 5.63402L13.9642 7.36607L7.036 11.3661ZM13.3661 12.3302L12.3661 10.5981L15.8302 8.59812C16.5519 8.18146 17.0195 7.5747 17.233 6.77785C17.4465 5.981 17.345 5.22174 16.9283 4.50005C16.5116 3.77836 15.9049 3.31076 15.108 3.09724C14.3112 2.88373 13.5519 2.98531 12.8302 3.40197L9.36612 5.40197L8.36612 3.66992L11.8302 1.66992C13.0282 0.978255 14.2932 0.810859 15.625 1.16773C16.9569 1.52461 17.9687 2.30205 18.6604 3.50005C19.352 4.69805 19.5194 5.96299 19.1625 7.29486C18.8057 8.62674 18.0282 9.63851 16.8302 10.3302L13.3661 12.3302Z" fill="#393939"/>
</svg>
